<svg xmlns="http://www.w3.org/2000/svg" xmlns:xml="http://www.w3.org/XML/1998/namespace" id="svg" width="119.322" height="68.22" x="0" y="0" enable-background="new 0 0 89.492 51.165" version="1.1" viewBox="0 0 89.492 51.165" xml:space="preserve"><g xmlns="http://www.w3.org/2000/svg" id="breadboard"><rect xmlns="http://www.w3.org/2000/svg" width="84.783" height="5.107" x="3.328" y="1.042" fill="#8D8C8C"/><rect xmlns="http://www.w3.org/2000/svg" width="84.783" height="5.107" x="3.328" y="44.243" fill="#8D8C8C"/><g xmlns="http://www.w3.org/2000/svg"><path xmlns="http://www.w3.org/2000/svg" fill="#1E7A33" d="M2.905,0v51.023l86.399-0.142V-0.142L2.905,0z M6.626,48.605c-0.999,0-1.81-0.812-1.81-1.812s0.811-1.812,1.81-1.812s1.812,0.812,1.812,1.812C8.435,47.795,7.625,48.605,6.626,48.605z M6.626,5.405c-0.999,0-1.81-0.812-1.81-1.812c0-0.999,0.811-1.812,1.81-1.812s1.812,0.812,1.812,1.812C8.435,4.594,7.625,5.405,6.626,5.405z M13.802,48.605c-0.997,0-1.811-0.812-1.811-1.812s0.812-1.812,1.811-1.812c0.999,0,1.812,0.812,1.812,1.812C15.612,47.795,14.801,48.605,13.802,48.605z M13.802,5.405c-0.997,0-1.811-0.812-1.811-1.812c0-0.999,0.812-1.812,1.811-1.812c0.999,0,1.812,0.812,1.812,1.812C15.612,4.594,14.801,5.405,13.802,5.405z M20.977,48.605c-0.999,0-1.812-0.812-1.812-1.812s0.812-1.812,1.812-1.812s1.811,0.812,1.811,1.812C22.787,47.795,21.976,48.605,20.977,48.605z M20.977,5.405c-0.999,0-1.812-0.812-1.812-1.812c0-0.999,0.812-1.812,1.812-1.812s1.811,0.812,1.811,1.812C22.787,4.594,21.976,5.405,20.977,5.405z M28.155,48.605c-1,0-1.812-0.812-1.812-1.812s0.812-1.812,1.812-1.812c0.999,0,1.81,0.812,1.81,1.812C29.963,47.795,29.154,48.605,28.155,48.605z M28.155,5.405c-1,0-1.812-0.812-1.812-1.812c0-0.999,0.812-1.812,1.812-1.812c0.999,0,1.81,0.812,1.81,1.812C29.963,4.594,29.154,5.405,28.155,5.405z M35.33,48.605c-1,0-1.812-0.812-1.812-1.812s0.812-1.812,1.812-1.812c0.999,0,1.812,0.812,1.812,1.812C37.138,47.795,36.329,48.605,35.33,48.605z M35.33,41.405c-1,0-1.812-0.812-1.812-1.812c0-0.999,0.812-1.812,1.812-1.812c0.999,0,1.812,0.812,1.812,1.812C37.138,40.594,36.329,41.405,35.33,41.405z M35.33,5.405c-1,0-1.812-0.812-1.812-1.812c0-0.999,0.812-1.812,1.812-1.812c0.999,0,1.812,0.812,1.812,1.812C37.138,4.594,36.329,5.405,35.33,5.405z M35.33,12.605c-1,0-1.812-0.812-1.812-1.812c0-0.999,0.812-1.812,1.812-1.812c0.999,0,1.812,0.812,1.812,1.812C37.138,11.795,36.329,12.605,35.33,12.605z M42.506,48.605c-1,0-1.811-0.812-1.811-1.812s0.812-1.812,1.811-1.812c1,0,1.812,0.812,1.812,1.812C44.316,47.795,43.506,48.605,42.506,48.605z M42.506,5.405c-1,0-1.811-0.812-1.811-1.812c0-0.999,0.812-1.812,1.811-1.812c1,0,1.812,0.812,1.812,1.812C44.316,4.594,43.506,5.405,42.506,5.405z M49.681,48.605c-1,0-1.812-0.812-1.812-1.812s0.812-1.812,1.812-1.812s1.811,0.812,1.811,1.812C51.492,47.795,50.68,48.605,49.681,48.605z M49.681,5.405c-1,0-1.812-0.812-1.812-1.812c0-0.999,0.812-1.812,1.812-1.812s1.811,0.812,1.811,1.812C51.492,4.594,50.68,5.405,49.681,5.405z M56.856,48.605c-1,0-1.812-0.812-1.812-1.812s0.812-1.812,1.812-1.812c0.998,0,1.81,0.812,1.81,1.812C58.666,47.795,57.854,48.605,56.856,48.605z M56.856,5.405c-1,0-1.812-0.812-1.812-1.812c0-0.999,0.812-1.812,1.812-1.812c0.998,0,1.81,0.812,1.81,1.812C58.666,4.594,57.854,5.405,56.856,5.405z M64.033,48.605c-1,0-1.812-0.812-1.812-1.812s0.812-1.812,1.812-1.812c0.999,0,1.812,0.812,1.812,1.812C65.842,47.795,65.032,48.605,64.033,48.605z M64.033,5.405c-1,0-1.812-0.812-1.812-1.812c0-0.999,0.812-1.812,1.812-1.812c0.999,0,1.812,0.812,1.812,1.812C65.842,4.594,65.032,5.405,64.033,5.405z M71.208,48.605c-1,0-1.812-0.812-1.812-1.812s0.812-1.812,1.812-1.812c0.997,0,1.812,0.812,1.812,1.812C73.015,47.795,72.205,48.605,71.208,48.605z M71.208,5.405c-1,0-1.812-0.812-1.812-1.812c0-0.999,0.812-1.812,1.812-1.812c0.997,0,1.812,0.812,1.812,1.812C73.015,4.594,72.205,5.405,71.208,5.405z M78.384,48.605c-1,0-1.812-0.812-1.812-1.812s0.812-1.812,1.812-1.812c0.999,0,1.812,0.812,1.812,1.812C80.194,47.795,79.383,48.605,78.384,48.605z M78.384,5.405c-1,0-1.812-0.812-1.812-1.812c0-0.999,0.812-1.812,1.812-1.812c0.999,0,1.812,0.812,1.812,1.812C80.194,4.594,79.383,5.405,78.384,5.405z M86.84,48.075c-0.326,0.328-0.779,0.531-1.277,0.531c-1,0-1.812-0.812-1.812-1.812c0-0.998,0.812-1.812,1.812-1.812c0.997,0,1.811,0.812,1.811,1.812C87.37,47.295,87.166,47.749,86.84,48.075z M85.559,41.405c-1,0-1.812-0.812-1.812-1.811s0.812-1.812,1.812-1.812c0.997,0,1.811,0.812,1.811,1.812S86.556,41.405,85.559,41.405z M85.559,34.206c-1,0-1.812-0.812-1.812-1.812s0.812-1.812,1.812-1.812c0.997,0,1.811,0.812,1.811,1.812S86.556,34.206,85.559,34.206z M85.559,27.004c-1,0-1.812-0.811-1.812-1.81c0-0.999,0.812-1.812,1.812-1.812c0.997,0,1.811,0.812,1.811,1.812C87.37,26.194,86.556,27.004,85.559,27.004z M85.559,19.804c-1,0-1.812-0.812-1.812-1.811s0.812-1.812,1.812-1.812c0.997,0,1.811,0.812,1.811,1.812S86.556,19.804,85.559,19.804z M85.559,12.604c-1,0-1.812-0.812-1.812-1.811s0.812-1.812,1.812-1.812c0.997,0,1.811,0.812,1.811,1.812S86.556,12.604,85.559,12.604z M85.559,5.405c-1,0-1.812-0.812-1.812-1.812c0-0.999,0.812-1.812,1.812-1.812c0.997,0,1.811,0.812,1.811,1.812C87.367,4.594,86.556,5.405,85.559,5.405z"/><path xmlns="http://www.w3.org/2000/svg" fill="#147390" d="M87.37,46.795c-0.001,0.5-0.204,0.953-0.53,1.279C87.166,47.749,87.37,47.295,87.37,46.795z"/></g><g xmlns="http://www.w3.org/2000/svg"><path xmlns="http://www.w3.org/2000/svg" fill="#9A916C" d="M6.626,1.042c-1.405,0-2.552,1.146-2.552,2.555c0,1.406,1.146,2.552,2.552,2.552c1.409,0,2.555-1.146,2.555-2.552C9.178,2.187,8.035,1.042,6.626,1.042z M6.626,5.404c-0.999,0-1.81-0.812-1.81-1.811s0.811-1.812,1.81-1.812s1.812,0.812,1.812,1.812C8.435,4.594,7.625,5.404,6.626,5.404z"/><path xmlns="http://www.w3.org/2000/svg" fill="#9A916C" d="M13.802,1.042c-1.406,0-2.553,1.146-2.553,2.555c0,1.406,1.146,2.552,2.553,2.552c1.409,0,2.554-1.146,2.554-2.552C16.353,2.187,15.211,1.042,13.802,1.042z M13.802,5.404c-0.997,0-1.811-0.812-1.811-1.811s0.812-1.812,1.811-1.812c0.999,0,1.812,0.812,1.812,1.812S14.801,5.404,13.802,5.404z"/><path xmlns="http://www.w3.org/2000/svg" fill="#9A916C" d="M20.977,1.042c-1.407,0-2.554,1.146-2.554,2.555c0,1.406,1.146,2.552,2.554,2.552c1.409,0,2.553-1.146,2.553-2.552C23.53,2.187,22.386,1.042,20.977,1.042z M20.977,5.404c-0.999,0-1.812-0.812-1.812-1.811s0.812-1.812,1.812-1.812s1.811,0.812,1.811,1.812S21.976,5.404,20.977,5.404z"/><path xmlns="http://www.w3.org/2000/svg" fill="#9A916C" d="M28.155,1.042c-1.408,0-2.553,1.146-2.553,2.555c0,1.406,1.145,2.552,2.553,2.552c1.407,0,2.551-1.146,2.551-2.552C30.705,2.186,29.562,1.042,28.155,1.042z M28.155,5.404c-1,0-1.812-0.812-1.812-1.811s0.812-1.812,1.812-1.812c0.999,0,1.81,0.812,1.81,1.812C29.964,4.594,29.154,5.404,28.155,5.404z"/><path xmlns="http://www.w3.org/2000/svg" fill="#9A916C" d="M35.33,1.042c-1.407,0-2.552,1.146-2.552,2.555c0,1.406,1.145,2.552,2.552,2.552c1.408,0,2.552-1.146,2.552-2.552C37.882,2.187,36.739,1.042,35.33,1.042z M35.33,5.404c-1,0-1.812-0.812-1.812-1.811s0.812-1.812,1.812-1.812c0.999,0,1.812,0.812,1.812,1.812C37.138,4.594,36.329,5.404,35.33,5.404z"/><path xmlns="http://www.w3.org/2000/svg" fill="#9A916C" d="M35.33,8.242c-1.407,0-2.552,1.146-2.552,2.555c0,1.406,1.145,2.552,2.552,2.552c1.408,0,2.552-1.146,2.552-2.552C37.882,9.387,36.739,8.242,35.33,8.242z M35.33,12.604c-1,0-1.812-0.812-1.812-1.811s0.812-1.812,1.812-1.812c0.999,0,1.812,0.812,1.812,1.812C37.138,11.794,36.329,12.604,35.33,12.604z"/><path xmlns="http://www.w3.org/2000/svg" fill="#9A916C" d="M42.506,1.042c-1.406,0-2.552,1.146-2.552,2.555c0,1.406,1.146,2.552,2.552,2.552c1.406,0,2.553-1.146,2.553-2.552C45.056,2.187,43.914,1.042,42.506,1.042z M42.506,5.404c-1,0-1.811-0.812-1.811-1.811s0.812-1.812,1.811-1.812c1,0,1.812,0.812,1.812,1.812S43.506,5.404,42.506,5.404z"/><path xmlns="http://www.w3.org/2000/svg" fill="#9A916C" d="M49.681,1.042c-1.407,0-2.554,1.146-2.554,2.555c0,1.406,1.146,2.552,2.554,2.552c1.406,0,2.554-1.146,2.554-2.552C52.235,2.187,51.091,1.042,49.681,1.042z M49.681,5.404c-1,0-1.812-0.812-1.812-1.811s0.812-1.812,1.812-1.812s1.811,0.812,1.811,1.812S50.68,5.404,49.681,5.404z"/><path xmlns="http://www.w3.org/2000/svg" fill="#9A916C" d="M56.856,1.042c-1.407,0-2.553,1.146-2.553,2.555c0,1.406,1.146,2.552,2.553,2.552c1.408,0,2.552-1.146,2.552-2.552C59.408,2.187,58.264,1.042,56.856,1.042z M56.856,5.404c-1,0-1.812-0.812-1.812-1.811s0.812-1.812,1.812-1.812c0.998,0,1.81,0.812,1.81,1.812S57.854,5.404,56.856,5.404z"/><path xmlns="http://www.w3.org/2000/svg" fill="#9A916C" d="M64.033,1.042c-1.408,0-2.554,1.146-2.554,2.555c0,1.406,1.146,2.552,2.554,2.552s2.551-1.146,2.551-2.552C66.584,2.186,65.441,1.042,64.033,1.042z M64.033,5.404c-1,0-1.812-0.812-1.812-1.811s0.812-1.812,1.812-1.812c0.999,0,1.812,0.812,1.812,1.812C65.844,4.594,65.032,5.404,64.033,5.404z"/><path xmlns="http://www.w3.org/2000/svg" fill="#9A916C" d="M71.208,1.042c-1.407,0-2.554,1.146-2.554,2.555c0,1.406,1.146,2.552,2.554,2.552s2.552-1.146,2.552-2.552C73.76,2.187,72.617,1.042,71.208,1.042z M71.208,5.404c-1,0-1.812-0.812-1.812-1.811s0.812-1.812,1.812-1.812c0.997,0,1.812,0.812,1.812,1.812C73.015,4.594,72.205,5.404,71.208,5.404z"/><path xmlns="http://www.w3.org/2000/svg" fill="#9A916C" d="M78.384,1.042c-1.406,0-2.556,1.146-2.556,2.555c0,1.406,1.146,2.552,2.556,2.552c1.405,0,2.554-1.146,2.554-2.552C80.934,2.187,79.791,1.042,78.384,1.042z M78.384,5.404c-1,0-1.812-0.812-1.812-1.811s0.812-1.812,1.812-1.812c0.999,0,1.812,0.812,1.812,1.812S79.383,5.404,78.384,5.404z"/><path xmlns="http://www.w3.org/2000/svg" fill="#9A916C" d="M6.626,44.243c-1.405,0-2.552,1.146-2.552,2.555c0,1.406,1.146,2.554,2.552,2.554c1.409,0,2.555-1.146,2.555-2.554C9.178,45.387,8.035,44.243,6.626,44.243z M6.626,48.604c-0.999,0-1.81-0.812-1.81-1.811c0-1,0.811-1.812,1.81-1.812s1.812,0.812,1.812,1.812C8.435,47.793,7.625,48.604,6.626,48.604z"/><path xmlns="http://www.w3.org/2000/svg" fill="#9A916C" d="M13.802,44.243c-1.406,0-2.553,1.146-2.553,2.555c0,1.406,1.146,2.554,2.553,2.554c1.409,0,2.554-1.146,2.554-2.554C16.353,45.387,15.211,44.243,13.802,44.243z M13.802,48.604c-0.997,0-1.811-0.812-1.811-1.811c0-1,0.812-1.812,1.811-1.812c0.999,0,1.812,0.812,1.812,1.812S14.801,48.604,13.802,48.604z"/><path xmlns="http://www.w3.org/2000/svg" fill="#9A916C" d="M20.977,44.243c-1.407,0-2.554,1.146-2.554,2.555c0,1.406,1.146,2.554,2.554,2.554c1.409,0,2.553-1.146,2.553-2.554C23.53,45.387,22.386,44.243,20.977,44.243z M20.977,48.604c-0.999,0-1.812-0.812-1.812-1.811c0-1,0.812-1.812,1.812-1.812s1.811,0.812,1.811,1.812S21.976,48.604,20.977,48.604z"/><path xmlns="http://www.w3.org/2000/svg" fill="#9A916C" d="M28.155,44.243c-1.408,0-2.553,1.146-2.553,2.555c0,1.406,1.145,2.554,2.553,2.554c1.407,0,2.551-1.146,2.551-2.554C30.705,45.386,29.562,44.243,28.155,44.243z M28.155,48.604c-1,0-1.812-0.812-1.812-1.811c0-1,0.812-1.812,1.812-1.812c0.999,0,1.81,0.812,1.81,1.812C29.964,47.793,29.154,48.604,28.155,48.604z"/><path xmlns="http://www.w3.org/2000/svg" fill="#9A916C" d="M35.33,44.243c-1.407,0-2.552,1.146-2.552,2.555c0,1.406,1.145,2.554,2.552,2.554c1.408,0,2.552-1.146,2.552-2.554C37.882,45.387,36.739,44.243,35.33,44.243z M35.33,48.604c-1,0-1.812-0.812-1.812-1.811c0-1,0.812-1.812,1.812-1.812c0.999,0,1.812,0.812,1.812,1.812C37.138,47.793,36.329,48.604,35.33,48.604z"/><path xmlns="http://www.w3.org/2000/svg" fill="#9A916C" d="M35.33,37.042c-1.407,0-2.552,1.146-2.552,2.558c0,1.403,1.145,2.554,2.552,2.554c1.408,0,2.552-1.146,2.552-2.554C37.882,38.187,36.739,37.042,35.33,37.042z M35.33,41.405c-1,0-1.812-0.812-1.812-1.812s0.812-1.812,1.812-1.812c0.999,0,1.812,0.812,1.812,1.812C37.138,40.594,36.329,41.405,35.33,41.405z"/><path xmlns="http://www.w3.org/2000/svg" fill="#9A916C" d="M42.506,44.243c-1.406,0-2.552,1.146-2.552,2.555c0,1.406,1.146,2.554,2.552,2.554c1.406,0,2.553-1.146,2.553-2.554C45.056,45.387,43.914,44.243,42.506,44.243z M42.506,48.604c-1,0-1.811-0.812-1.811-1.811c0-1,0.812-1.812,1.811-1.812c1,0,1.812,0.812,1.812,1.812S43.506,48.604,42.506,48.604z"/><path xmlns="http://www.w3.org/2000/svg" fill="#9A916C" d="M49.681,44.243c-1.407,0-2.554,1.146-2.554,2.555c0,1.406,1.146,2.554,2.554,2.554c1.406,0,2.554-1.146,2.554-2.554C52.235,45.387,51.091,44.243,49.681,44.243z M49.681,48.604c-1,0-1.812-0.812-1.812-1.811c0-1,0.812-1.812,1.812-1.812s1.811,0.812,1.811,1.812S50.68,48.604,49.681,48.604z"/><path xmlns="http://www.w3.org/2000/svg" fill="#9A916C" d="M56.856,44.243c-1.407,0-2.553,1.146-2.553,2.555c0,1.406,1.146,2.554,2.553,2.554c1.408,0,2.552-1.146,2.552-2.554C59.408,45.387,58.264,44.243,56.856,44.243z M56.856,48.604c-1,0-1.812-0.812-1.812-1.811c0-1,0.812-1.812,1.812-1.812c0.998,0,1.81,0.812,1.81,1.812S57.854,48.604,56.856,48.604z"/><path xmlns="http://www.w3.org/2000/svg" fill="#9A916C" d="M64.033,44.243c-1.408,0-2.554,1.146-2.554,2.555c0,1.406,1.146,2.554,2.554,2.554s2.551-1.146,2.551-2.554C66.584,45.386,65.441,44.243,64.033,44.243z M64.033,48.604c-1,0-1.812-0.812-1.812-1.811c0-1,0.812-1.812,1.812-1.812c0.999,0,1.812,0.812,1.812,1.812S65.032,48.604,64.033,48.604z"/><path xmlns="http://www.w3.org/2000/svg" fill="#9A916C" d="M71.208,44.243c-1.407,0-2.554,1.146-2.554,2.555c0,1.406,1.146,2.554,2.554,2.554s2.552-1.146,2.552-2.554C73.76,45.387,72.617,44.243,71.208,44.243z M71.208,48.604c-1,0-1.812-0.812-1.812-1.811c0-1,0.812-1.812,1.812-1.812c0.997,0,1.812,0.812,1.812,1.812C73.015,47.793,72.205,48.604,71.208,48.604z"/><path xmlns="http://www.w3.org/2000/svg" fill="#9A916C" d="M78.384,44.243c-1.406,0-2.556,1.146-2.556,2.555c0,1.406,1.146,2.554,2.556,2.554c1.405,0,2.554-1.146,2.554-2.554C80.934,45.387,79.791,44.243,78.384,44.243z M78.384,48.604c-1,0-1.812-0.812-1.812-1.811c0-1,0.812-1.812,1.812-1.812c0.999,0,1.812,0.812,1.812,1.812S79.383,48.604,78.384,48.604z"/><path xmlns="http://www.w3.org/2000/svg" fill="#9A916C" d="M85.559,1.042c-1.406,0-2.555,1.146-2.555,2.555c0,1.406,1.146,2.552,2.555,2.552c1.407,0,2.552-1.146,2.552-2.552C88.111,2.187,86.969,1.042,85.559,1.042z M85.559,5.404c-1,0-1.812-0.812-1.812-1.811s0.812-1.812,1.812-1.812c0.997,0,1.811,0.812,1.811,1.812S86.556,5.404,85.559,5.404z"/><path xmlns="http://www.w3.org/2000/svg" fill="#9A916C" d="M85.559,8.242c-1.406,0-2.555,1.146-2.555,2.555c0,1.406,1.146,2.552,2.555,2.552c1.407,0,2.552-1.146,2.552-2.552C88.111,9.387,86.969,8.242,85.559,8.242z M85.559,12.604c-1,0-1.812-0.812-1.812-1.811s0.812-1.812,1.812-1.812c0.997,0,1.811,0.812,1.811,1.812S86.556,12.604,85.559,12.604z"/><path xmlns="http://www.w3.org/2000/svg" fill="#9A916C" d="M85.559,15.442c-1.406,0-2.555,1.146-2.555,2.555c0,1.406,1.146,2.552,2.555,2.552c1.407,0,2.552-1.146,2.552-2.552C88.111,16.588,86.969,15.442,85.559,15.442z M85.559,19.804c-1,0-1.812-0.812-1.812-1.811s0.812-1.812,1.812-1.812c0.997,0,1.811,0.812,1.811,1.812S86.556,19.804,85.559,19.804z"/><path xmlns="http://www.w3.org/2000/svg" fill="#9A916C" d="M85.559,22.642c-1.406,0-2.555,1.146-2.555,2.555c0,1.406,1.146,2.551,2.555,2.551c1.407,0,2.552-1.146,2.552-2.551C88.111,23.788,86.969,22.642,85.559,22.642z M85.559,27.004c-1,0-1.812-0.811-1.812-1.81c0-0.999,0.812-1.812,1.812-1.812c0.997,0,1.811,0.812,1.811,1.812C87.37,26.194,86.556,27.004,85.559,27.004z"/><path xmlns="http://www.w3.org/2000/svg" fill="#9A916C" d="M85.559,29.843c-1.406,0-2.555,1.146-2.555,2.555c0,1.406,1.146,2.552,2.555,2.552c1.407,0,2.552-1.146,2.552-2.552C88.111,30.989,86.969,29.843,85.559,29.843z M85.559,34.206c-1,0-1.812-0.812-1.812-1.812s0.812-1.812,1.812-1.812c0.997,0,1.811,0.812,1.811,1.812S86.556,34.206,85.559,34.206z"/><path xmlns="http://www.w3.org/2000/svg" fill="#9A916C" d="M85.559,37.043c-1.406,0-2.555,1.146-2.555,2.555c0,1.406,1.146,2.553,2.555,2.553c1.407,0,2.552-1.146,2.552-2.553C88.111,38.188,86.969,37.043,85.559,37.043z M85.559,41.405c-1,0-1.812-0.812-1.812-1.811s0.812-1.812,1.812-1.812c0.997,0,1.811,0.812,1.811,1.812S86.556,41.405,85.559,41.405z"/><path xmlns="http://www.w3.org/2000/svg" fill="#9A916C" d="M85.559,44.243c-1.406,0-2.555,1.146-2.555,2.555c0,1.406,1.146,2.555,2.555,2.555c1.407,0,2.552-1.146,2.552-2.555C88.111,45.388,86.969,44.243,85.559,44.243z M85.559,48.605c-1,0-1.812-0.812-1.812-1.812c0-0.998,0.812-1.812,1.812-1.812c0.997,0,1.811,0.812,1.811,1.812S86.556,48.605,85.559,48.605z"/></g><g xmlns="http://www.w3.org/2000/svg"><g xmlns="http://www.w3.org/2000/svg"><rect xmlns="http://www.w3.org/2000/svg" width="7.675" height="2.902" x="23.219" y="12.604" fill="#8D8C8C"/><rect xmlns="http://www.w3.org/2000/svg" width="9.43" height="2.902" x="7.214" y="12.604" fill="#8D8C8C"/></g><g xmlns="http://www.w3.org/2000/svg"><rect xmlns="http://www.w3.org/2000/svg" width="7.675" height="2.902" x="23.219" y="35.375" fill="#8D8C8C"/><rect xmlns="http://www.w3.org/2000/svg" width="9.43" height="2.902" x="7.214" y="35.375" fill="#8D8C8C"/></g><g xmlns="http://www.w3.org/2000/svg"><polygon xmlns="http://www.w3.org/2000/svg" fill="#404040" points="24.482 29.644 25.57 28.819 25.57 34.629 26.525 34.629 26.525 15.73 25.57 15.73 25.57 22.061 24.482 21.234 24.482 14.76 0 14.76 0 36.122 24.482 36.122"/></g><path xmlns="http://www.w3.org/2000/svg" d="M14.393,20.892c0,0.156-0.127,0.271-0.281,0.255L3.61,20.051c-0.155-0.016-0.282-0.156-0.282-0.312v-1.744c0-0.156,0.127-0.298,0.282-0.314l10.502-1.096c0.154-0.016,0.281,0.098,0.281,0.254v0.254c0,0.156-0.127,0.296-0.281,0.309l-9.549,0.83c-0.154,0.014-0.281,0.152-0.281,0.309v0.65c0,0.156,0.127,0.296,0.281,0.309l9.549,0.83c0.154,0.014,0.281,0.152,0.281,0.309V20.892z"/><path xmlns="http://www.w3.org/2000/svg" d="M14.393,34.042c0,0.156-0.127,0.271-0.281,0.254L3.609,33.198c-0.155-0.017-0.282-0.156-0.282-0.312V31.14c0-0.155,0.127-0.297,0.282-0.312l10.503-1.101c0.154-0.019,0.281,0.101,0.281,0.257v0.256c0,0.153-0.127,0.295-0.281,0.309l-9.549,0.828c-0.154,0.014-0.281,0.152-0.281,0.309v0.65c0,0.156,0.127,0.297,0.281,0.309l9.549,0.83c0.154,0.014,0.281,0.152,0.281,0.309V34.042z"/><g xmlns="http://www.w3.org/2000/svg"><polygon xmlns="http://www.w3.org/2000/svg" fill="#939393" points="5.116 32.691 4.288 32.625 4.288 31.405 5.116 31.336"/><polygon xmlns="http://www.w3.org/2000/svg" fill="#545454" points="5.116 32.691 5.469 32.726 5.469 31.299 5.116 31.336"/></g><g xmlns="http://www.w3.org/2000/svg"><polygon xmlns="http://www.w3.org/2000/svg" fill="#939393" points="5.116 19.543 4.288 19.475 4.288 18.256 5.116 18.187"/><polygon xmlns="http://www.w3.org/2000/svg" fill="#545454" points="5.116 19.543 5.469 19.58 5.469 18.152 5.116 18.187"/></g><rect xmlns="http://www.w3.org/2000/svg" width="2.015" height="5.557" x="10.848" y="22.531" fill="#939393"/><rect xmlns="http://www.w3.org/2000/svg" width="1.114" height="5.557" x="12.863" y="22.531" fill="#545454"/><path xmlns="http://www.w3.org/2000/svg" d="M2.37,22.195c0,0.156,0.127,0.292,0.283,0.301l11.613,0.699c0.154,0.009,0.281,0.145,0.281,0.301v3.889c0,0.156-0.127,0.293-0.281,0.301L2.653,28.385c-0.156,0.01-0.283,0.145-0.283,0.301v0.518c0,0.156,0.127,0.273,0.283,0.267l13.2-0.961c0.153-0.015,0.283-0.146,0.283-0.308V22.68c0-0.156-0.129-0.294-0.283-0.305l-13.2-0.959C2.498,21.404,2.37,21.523,2.37,21.68V22.195z"/><line xmlns="http://www.w3.org/2000/svg" x1="23.885" x2=".312" y1="15.39" y2="15.39" fill="none" stroke="#FFF" stroke-linecap="round" stroke-opacity=".24"/><line xmlns="http://www.w3.org/2000/svg" x1="23.885" x2=".312" y1="35.747" y2="35.747" fill="none" stroke="#FFF" stroke-linecap="round" stroke-opacity=".15" stroke-width=".5"/><line xmlns="http://www.w3.org/2000/svg" x1="25.456" x2="25.456" y1="22.742" y2="28.136" fill="none" stroke="#FFF" stroke-linecap="round" stroke-opacity=".3"/></g><text xmlns="http://www.w3.org/2000/svg" fill="#FFF" font-family="OCRA" font-size="3" transform="matrix(1 0 0 1 3.7083 9.6284)">VCC</text><text xmlns="http://www.w3.org/2000/svg" fill="#FFF" font-family="OCRA" font-size="3" transform="matrix(1 0 0 1 11.8293 9.6284)">F0</text><text xmlns="http://www.w3.org/2000/svg" fill="#FFF" font-family="OCRA" font-size="3" transform="matrix(1 0 0 1 19.0295 9.6284)">F1</text><text xmlns="http://www.w3.org/2000/svg" fill="#FFF" font-family="OCRA" font-size="3" transform="matrix(1 0 0 1 26.2297 9.6284)">F4</text><text xmlns="http://www.w3.org/2000/svg" fill="#FFF" font-family="OCRA" font-size="3" transform="matrix(0.7071 0.7071 -0.7071 0.7071 36.1853 6.8872)">F5</text><text xmlns="http://www.w3.org/2000/svg" fill="#FFF" font-family="OCRA" font-size="3" transform="matrix(0.7071 0.7071 -0.7071 0.7071 36.3054 13.9243)">AREF</text><text xmlns="http://www.w3.org/2000/svg" fill="#FFF" font-family="OCRA" font-size="3" transform="matrix(1 0 0 1 40.6296 9.6284)">F6</text><text xmlns="http://www.w3.org/2000/svg" fill="#FFF" font-family="OCRA" font-size="3" transform="matrix(1 0 0 1 47.8298 9.6284)">F7</text><text xmlns="http://www.w3.org/2000/svg" fill="#FFF" font-family="OCRA" font-size="3" transform="matrix(1 0 0 1 55.031 9.6284)">B6</text><text xmlns="http://www.w3.org/2000/svg" fill="#FFF" font-family="OCRA" font-size="3" transform="matrix(1 0 0 1 62.2302 9.6284)">B5</text><text xmlns="http://www.w3.org/2000/svg" fill="#FFF" font-family="OCRA" font-size="3" transform="matrix(1 0 0 1 69.4314 9.6284)">B4</text><text xmlns="http://www.w3.org/2000/svg" fill="#FFF" font-family="OCRA" font-size="3" transform="matrix(0.7071 -0.7071 0.7071 0.7071 77.0271 11.0405)">D7</text><text xmlns="http://www.w3.org/2000/svg" fill="#FFF" font-family="OCRA" font-size="3" transform="matrix(0.7071 -0.7071 0.7071 0.7071 81.3552 8.9658)">D6</text><text xmlns="http://www.w3.org/2000/svg" fill="#FFF" font-family="OCRA" font-size="3" transform="matrix(0.7071 -0.7071 0.7071 0.7071 79.9558 14.02)">D4</text><text xmlns="http://www.w3.org/2000/svg" fill="#FFF" font-family="OCRA" font-size="3" transform="matrix(1 0 0 1 3.7083 43.2251)">GND</text><text xmlns="http://www.w3.org/2000/svg" fill="#FFF" font-family="OCRA" font-size="3" transform="matrix(1 0 0 1 11.8293 43.2251)">B0</text><text xmlns="http://www.w3.org/2000/svg" fill="#FFF" font-family="OCRA" font-size="3" transform="matrix(1 0 0 1 19.0295 43.2251)">B1</text><text xmlns="http://www.w3.org/2000/svg" fill="#FFF" font-family="OCRA" font-size="3" transform="matrix(1 0 0 1 26.2297 43.2251)">B2</text><text xmlns="http://www.w3.org/2000/svg" fill="#FFF" font-family="OCRA" font-size="3" transform="matrix(0.7071 -0.7071 0.7071 0.7071 37.5388 44.9321)">B3</text><text xmlns="http://www.w3.org/2000/svg" fill="#FFF" font-family="OCRA" font-size="3" transform="matrix(0.7071 -0.7071 0.7071 0.7071 37.5388 37.5337)">E6</text><text xmlns="http://www.w3.org/2000/svg" fill="#FFF" font-family="OCRA" font-size="3" transform="matrix(1 0 0 1 40.6296 43.2251)">B7</text><text xmlns="http://www.w3.org/2000/svg" fill="#FFF" font-family="OCRA" font-size="3" transform="matrix(1 0 0 1 47.8298 43.2251)">D0</text><text xmlns="http://www.w3.org/2000/svg" fill="#FFF" font-family="OCRA" font-size="3" transform="matrix(1 0 0 1 44.8508 38.7466)">TEENSY 2.0</text><text xmlns="http://www.w3.org/2000/svg" fill="#FFF" font-family="OCRA" font-size="3" transform="matrix(1 0 0 1 55.031 43.2251)">D1</text><text xmlns="http://www.w3.org/2000/svg" fill="#FFF" font-family="OCRA" font-size="3" transform="matrix(1 0 0 1 62.2302 43.2251)">D2</text><text xmlns="http://www.w3.org/2000/svg" fill="#FFF" font-family="OCRA" font-size="3" transform="matrix(1 0 0 1 69.4314 43.2251)">D3</text><text xmlns="http://www.w3.org/2000/svg" fill="#FFF" font-family="OCRA" font-size="3" transform="matrix(0.7071 0.7071 -0.7071 0.7071 75.7478 40.7935)">C6</text><text xmlns="http://www.w3.org/2000/svg" fill="#FFF" font-family="OCRA" font-size="3" transform="matrix(0.7071 0.7071 -0.7071 0.7071 79.8357 42.4214)">C7</text><text xmlns="http://www.w3.org/2000/svg" fill="#FFF" font-family="OCRA" font-size="3" transform="matrix(0.7071 0.7071 -0.7071 0.7071 78.5974 36.9224)">D5</text><rect xmlns="http://www.w3.org/2000/svg" width="19.716" height="19.716" x="44.316" y="15.583" fill="#238D35"/><g xmlns="http://www.w3.org/2000/svg"><g xmlns="http://www.w3.org/2000/svg"><rect xmlns="http://www.w3.org/2000/svg" width="4.791" height="2.125" x="73.283" y="11.916" fill="#238D35"/><rect xmlns="http://www.w3.org/2000/svg" width="5.229" height="6.812" x="73.283" y="32.542" fill="#238D35"/><rect xmlns="http://www.w3.org/2000/svg" width="4.105" height="2.125" x="33.034" y="15.666" fill="#238D35"/><rect xmlns="http://www.w3.org/2000/svg" width="4.375" height="2.125" x="39.284" y="11.052" fill="#238D35"/><rect xmlns="http://www.w3.org/2000/svg" width="4.375" height="2.125" x="57.674" y="11.916" fill="#238D35"/><rect xmlns="http://www.w3.org/2000/svg" width="2.125" height="4.375" x="65.223" y="12.295" fill="#238D35"/><rect xmlns="http://www.w3.org/2000/svg" width="1.829" height="3.504" x="65.435" y="31.167" fill="#238D35"/><rect xmlns="http://www.w3.org/2000/svg" width="1.829" height="3.504" x="69.269" y="33.099" fill="#238D35"/><rect xmlns="http://www.w3.org/2000/svg" width="7.07" height="10.312" x="72.854" y="18.596" fill="#8C8B8B"/><ellipse xmlns="http://www.w3.org/2000/svg" cx="76.39" cy="23.753" fill="#404040" rx="2.148" ry="3.041"/><rect xmlns="http://www.w3.org/2000/svg" width="3.032" height="1.197" x="34.161" y="20.171" fill="#238D35"/><rect xmlns="http://www.w3.org/2000/svg" width="3.032" height="1.197" x="34.161" y="23.721" fill="#238D35"/><rect xmlns="http://www.w3.org/2000/svg" width="2.021" height="4.783" x="33.61" y="28.135" fill="#238D35"/></g></g><g xmlns="http://www.w3.org/2000/svg"><g xmlns="http://www.w3.org/2000/svg"><g xmlns="http://www.w3.org/2000/svg"><path xmlns="http://www.w3.org/2000/svg" fill="#A8A8A8" d="M6.627,45.634c-0.64,0-1.162,0.521-1.162,1.163h2.324C7.788,46.156,7.268,45.634,6.627,45.634z"/><path xmlns="http://www.w3.org/2000/svg" fill="#7A7A7A" d="M5.465,46.797c0,0.64,0.521,1.162,1.162,1.162c0.642,0,1.163-0.521,1.163-1.162H5.465z"/></g><circle xmlns="http://www.w3.org/2000/svg" cx="6.626" cy="46.794" r=".496" fill="#8D8C8C"/></g><g xmlns="http://www.w3.org/2000/svg"><g xmlns="http://www.w3.org/2000/svg"><path xmlns="http://www.w3.org/2000/svg" fill="#A8A8A8" d="M13.802,45.634c-0.64,0-1.162,0.521-1.162,1.163h2.324C14.964,46.156,14.444,45.634,13.802,45.634z"/><path xmlns="http://www.w3.org/2000/svg" fill="#7A7A7A" d="M12.64,46.797c0,0.64,0.521,1.162,1.162,1.162c0.642,0,1.163-0.521,1.163-1.162H12.64z"/></g><circle xmlns="http://www.w3.org/2000/svg" cx="13.802" cy="46.794" r=".496" fill="#8D8C8C"/></g><g xmlns="http://www.w3.org/2000/svg"><g xmlns="http://www.w3.org/2000/svg"><path xmlns="http://www.w3.org/2000/svg" fill="#A8A8A8" d="M20.978,45.634c-0.64,0-1.162,0.521-1.162,1.163h2.324C22.139,46.156,21.619,45.634,20.978,45.634z"/><path xmlns="http://www.w3.org/2000/svg" fill="#7A7A7A" d="M19.816,46.797c0,0.64,0.521,1.162,1.162,1.162c0.642,0,1.163-0.521,1.163-1.162H19.816z"/></g><circle xmlns="http://www.w3.org/2000/svg" cx="20.978" cy="46.794" r=".496" fill="#8D8C8C"/></g><g xmlns="http://www.w3.org/2000/svg"><g xmlns="http://www.w3.org/2000/svg"><path xmlns="http://www.w3.org/2000/svg" fill="#A8A8A8" d="M28.153,45.634c-0.64,0-1.162,0.521-1.162,1.163h2.324C29.315,46.156,28.795,45.634,28.153,45.634z"/><path xmlns="http://www.w3.org/2000/svg" fill="#7A7A7A" d="M26.991,46.797c0,0.64,0.521,1.162,1.162,1.162c0.642,0,1.163-0.521,1.163-1.162H26.991z"/></g><circle xmlns="http://www.w3.org/2000/svg" cx="28.153" cy="46.794" r=".496" fill="#8D8C8C"/></g><g xmlns="http://www.w3.org/2000/svg"><g xmlns="http://www.w3.org/2000/svg"><path xmlns="http://www.w3.org/2000/svg" fill="#A8A8A8" d="M35.328,45.634c-0.64,0-1.162,0.521-1.162,1.163h2.324C36.49,46.156,35.97,45.634,35.328,45.634z"/><path xmlns="http://www.w3.org/2000/svg" fill="#7A7A7A" d="M34.167,46.797c0,0.64,0.521,1.162,1.162,1.162c0.642,0,1.163-0.521,1.163-1.162H34.167z"/></g><circle xmlns="http://www.w3.org/2000/svg" cx="35.328" cy="46.794" r=".496" fill="#8D8C8C"/></g><g xmlns="http://www.w3.org/2000/svg"><g xmlns="http://www.w3.org/2000/svg"><path xmlns="http://www.w3.org/2000/svg" fill="#A8A8A8" d="M42.504,45.634c-0.64,0-1.162,0.521-1.162,1.163h2.324C43.665,46.156,43.145,45.634,42.504,45.634z"/><path xmlns="http://www.w3.org/2000/svg" fill="#7A7A7A" d="M41.342,46.797c0,0.64,0.521,1.162,1.162,1.162c0.642,0,1.163-0.521,1.163-1.162H41.342z"/></g><circle xmlns="http://www.w3.org/2000/svg" cx="42.503" cy="46.794" r=".496" fill="#8D8C8C"/></g><g xmlns="http://www.w3.org/2000/svg"><g xmlns="http://www.w3.org/2000/svg"><path xmlns="http://www.w3.org/2000/svg" fill="#A8A8A8" d="M49.679,45.634c-0.641,0-1.162,0.521-1.162,1.163h2.324C50.841,46.156,50.321,45.634,49.679,45.634z"/><path xmlns="http://www.w3.org/2000/svg" fill="#7A7A7A" d="M48.517,46.797c0,0.64,0.521,1.162,1.162,1.162c0.642,0,1.162-0.521,1.162-1.162H48.517z"/></g><circle xmlns="http://www.w3.org/2000/svg" cx="49.679" cy="46.794" r=".496" fill="#8D8C8C"/></g><g xmlns="http://www.w3.org/2000/svg"><g xmlns="http://www.w3.org/2000/svg"><path xmlns="http://www.w3.org/2000/svg" fill="#A8A8A8" d="M56.854,45.634c-0.641,0-1.162,0.521-1.162,1.163h2.324C58.015,46.156,57.496,45.634,56.854,45.634z"/><path xmlns="http://www.w3.org/2000/svg" fill="#7A7A7A" d="M55.692,46.797c0,0.64,0.521,1.162,1.162,1.162c0.642,0,1.162-0.521,1.162-1.162H55.692z"/></g><circle xmlns="http://www.w3.org/2000/svg" cx="56.854" cy="46.794" r=".496" fill="#8D8C8C"/></g><g xmlns="http://www.w3.org/2000/svg"><g xmlns="http://www.w3.org/2000/svg"><path xmlns="http://www.w3.org/2000/svg" fill="#A8A8A8" d="M64.03,45.634c-0.641,0-1.162,0.521-1.162,1.163h2.324C65.191,46.156,64.672,45.634,64.03,45.634z"/><path xmlns="http://www.w3.org/2000/svg" fill="#7A7A7A" d="M62.868,46.797c0,0.64,0.521,1.162,1.162,1.162c0.642,0,1.162-0.521,1.162-1.162H62.868z"/></g><circle xmlns="http://www.w3.org/2000/svg" cx="64.03" cy="46.794" r=".496" fill="#8D8C8C"/></g><g xmlns="http://www.w3.org/2000/svg"><g xmlns="http://www.w3.org/2000/svg"><path xmlns="http://www.w3.org/2000/svg" fill="#A8A8A8" d="M71.206,45.634c-0.641,0-1.162,0.521-1.162,1.163h2.324C72.367,46.156,71.847,45.634,71.206,45.634z"/><path xmlns="http://www.w3.org/2000/svg" fill="#7A7A7A" d="M70.044,46.797c0,0.64,0.521,1.162,1.162,1.162c0.642,0,1.162-0.521,1.162-1.162H70.044z"/></g><circle xmlns="http://www.w3.org/2000/svg" cx="71.205" cy="46.794" r=".496" fill="#8D8C8C"/></g><g xmlns="http://www.w3.org/2000/svg"><g xmlns="http://www.w3.org/2000/svg"><path xmlns="http://www.w3.org/2000/svg" fill="#A8A8A8" d="M78.381,45.634c-0.641,0-1.162,0.521-1.162,1.163h2.324C79.542,46.156,79.022,45.634,78.381,45.634z"/><path xmlns="http://www.w3.org/2000/svg" fill="#7A7A7A" d="M77.219,46.797c0,0.64,0.521,1.162,1.162,1.162c0.642,0,1.162-0.521,1.162-1.162H77.219z"/></g><circle xmlns="http://www.w3.org/2000/svg" cx="78.38" cy="46.794" r=".496" fill="#8D8C8C"/></g><g xmlns="http://www.w3.org/2000/svg"><g xmlns="http://www.w3.org/2000/svg"><path xmlns="http://www.w3.org/2000/svg" fill="#A8A8A8" d="M85.556,45.634c-0.641,0-1.162,0.521-1.162,1.163h2.324C86.718,46.156,86.198,45.634,85.556,45.634z"/><path xmlns="http://www.w3.org/2000/svg" fill="#7A7A7A" d="M84.394,46.797c0,0.64,0.521,1.162,1.162,1.162c0.642,0,1.162-0.521,1.162-1.162H84.394z"/></g><circle xmlns="http://www.w3.org/2000/svg" cx="85.556" cy="46.794" r=".496" fill="#8D8C8C"/></g></g><g xmlns="http://www.w3.org/2000/svg"><g xmlns="http://www.w3.org/2000/svg"><g xmlns="http://www.w3.org/2000/svg"><path xmlns="http://www.w3.org/2000/svg" fill="#A8A8A8" d="M6.627,2.431c-0.64,0-1.162,0.521-1.162,1.163h2.324C7.788,2.952,7.268,2.431,6.627,2.431z"/><path xmlns="http://www.w3.org/2000/svg" fill="#7A7A7A" d="M5.465,3.594c0,0.64,0.521,1.162,1.162,1.162c0.642,0,1.163-0.521,1.163-1.162H5.465z"/></g><circle xmlns="http://www.w3.org/2000/svg" cx="6.626" cy="3.591" r=".496" fill="#8D8C8C"/></g><g xmlns="http://www.w3.org/2000/svg"><g xmlns="http://www.w3.org/2000/svg"><path xmlns="http://www.w3.org/2000/svg" fill="#A8A8A8" d="M13.802,2.431c-0.64,0-1.162,0.521-1.162,1.163h2.324C14.964,2.952,14.444,2.431,13.802,2.431z"/><path xmlns="http://www.w3.org/2000/svg" fill="#7A7A7A" d="M12.64,3.594c0,0.64,0.521,1.162,1.162,1.162c0.642,0,1.163-0.521,1.163-1.162H12.64z"/></g><circle xmlns="http://www.w3.org/2000/svg" cx="13.802" cy="3.591" r=".496" fill="#8D8C8C"/></g><g xmlns="http://www.w3.org/2000/svg"><g xmlns="http://www.w3.org/2000/svg"><path xmlns="http://www.w3.org/2000/svg" fill="#A8A8A8" d="M20.978,2.431c-0.64,0-1.162,0.521-1.162,1.163h2.324C22.139,2.952,21.619,2.431,20.978,2.431z"/><path xmlns="http://www.w3.org/2000/svg" fill="#7A7A7A" d="M19.816,3.594c0,0.64,0.521,1.162,1.162,1.162c0.642,0,1.163-0.521,1.163-1.162H19.816z"/></g><circle xmlns="http://www.w3.org/2000/svg" cx="20.978" cy="3.591" r=".496" fill="#8D8C8C"/></g><g xmlns="http://www.w3.org/2000/svg"><g xmlns="http://www.w3.org/2000/svg"><path xmlns="http://www.w3.org/2000/svg" fill="#A8A8A8" d="M28.153,2.431c-0.64,0-1.162,0.521-1.162,1.163h2.324C29.315,2.952,28.795,2.431,28.153,2.431z"/><path xmlns="http://www.w3.org/2000/svg" fill="#7A7A7A" d="M26.991,3.594c0,0.64,0.521,1.162,1.162,1.162c0.642,0,1.163-0.521,1.163-1.162H26.991z"/></g><circle xmlns="http://www.w3.org/2000/svg" cx="28.153" cy="3.591" r=".496" fill="#8D8C8C"/></g><g xmlns="http://www.w3.org/2000/svg"><g xmlns="http://www.w3.org/2000/svg"><path xmlns="http://www.w3.org/2000/svg" fill="#A8A8A8" d="M35.328,2.431c-0.64,0-1.162,0.521-1.162,1.163h2.324C36.49,2.952,35.97,2.431,35.328,2.431z"/><path xmlns="http://www.w3.org/2000/svg" fill="#7A7A7A" d="M34.167,3.594c0,0.64,0.521,1.162,1.162,1.162c0.642,0,1.163-0.521,1.163-1.162H34.167z"/></g><circle xmlns="http://www.w3.org/2000/svg" cx="35.328" cy="3.591" r=".496" fill="#8D8C8C"/></g><g xmlns="http://www.w3.org/2000/svg"><g xmlns="http://www.w3.org/2000/svg"><path xmlns="http://www.w3.org/2000/svg" fill="#A8A8A8" d="M42.504,2.431c-0.64,0-1.162,0.521-1.162,1.163h2.324C43.665,2.952,43.145,2.431,42.504,2.431z"/><path xmlns="http://www.w3.org/2000/svg" fill="#7A7A7A" d="M41.342,3.594c0,0.64,0.521,1.162,1.162,1.162c0.642,0,1.163-0.521,1.163-1.162H41.342z"/></g><circle xmlns="http://www.w3.org/2000/svg" cx="42.503" cy="3.591" r=".496" fill="#8D8C8C"/></g><g xmlns="http://www.w3.org/2000/svg"><g xmlns="http://www.w3.org/2000/svg"><path xmlns="http://www.w3.org/2000/svg" fill="#A8A8A8" d="M49.679,2.431c-0.641,0-1.162,0.521-1.162,1.163h2.324C50.841,2.952,50.321,2.431,49.679,2.431z"/><path xmlns="http://www.w3.org/2000/svg" fill="#7A7A7A" d="M48.517,3.594c0,0.64,0.521,1.162,1.162,1.162c0.642,0,1.162-0.521,1.162-1.162H48.517z"/></g><circle xmlns="http://www.w3.org/2000/svg" cx="49.679" cy="3.591" r=".496" fill="#8D8C8C"/></g><g xmlns="http://www.w3.org/2000/svg"><g xmlns="http://www.w3.org/2000/svg"><path xmlns="http://www.w3.org/2000/svg" fill="#A8A8A8" d="M56.854,2.431c-0.641,0-1.162,0.521-1.162,1.163h2.324C58.015,2.952,57.496,2.431,56.854,2.431z"/><path xmlns="http://www.w3.org/2000/svg" fill="#7A7A7A" d="M55.692,3.594c0,0.64,0.521,1.162,1.162,1.162c0.642,0,1.162-0.521,1.162-1.162H55.692z"/></g><circle xmlns="http://www.w3.org/2000/svg" cx="56.854" cy="3.591" r=".496" fill="#8D8C8C"/></g><g xmlns="http://www.w3.org/2000/svg"><g xmlns="http://www.w3.org/2000/svg"><path xmlns="http://www.w3.org/2000/svg" fill="#A8A8A8" d="M64.03,2.431c-0.641,0-1.162,0.521-1.162,1.163h2.324C65.191,2.952,64.672,2.431,64.03,2.431z"/><path xmlns="http://www.w3.org/2000/svg" fill="#7A7A7A" d="M62.868,3.594c0,0.64,0.521,1.162,1.162,1.162c0.642,0,1.162-0.521,1.162-1.162H62.868z"/></g><circle xmlns="http://www.w3.org/2000/svg" cx="64.03" cy="3.591" r=".496" fill="#8D8C8C"/></g><g xmlns="http://www.w3.org/2000/svg"><g xmlns="http://www.w3.org/2000/svg"><path xmlns="http://www.w3.org/2000/svg" fill="#A8A8A8" d="M71.206,2.431c-0.641,0-1.162,0.521-1.162,1.163h2.324C72.367,2.952,71.847,2.431,71.206,2.431z"/><path xmlns="http://www.w3.org/2000/svg" fill="#7A7A7A" d="M70.044,3.594c0,0.64,0.521,1.162,1.162,1.162c0.642,0,1.162-0.521,1.162-1.162H70.044z"/></g><circle xmlns="http://www.w3.org/2000/svg" cx="71.205" cy="3.591" r=".496" fill="#8D8C8C"/></g><g xmlns="http://www.w3.org/2000/svg"><g xmlns="http://www.w3.org/2000/svg"><path xmlns="http://www.w3.org/2000/svg" fill="#A8A8A8" d="M78.381,2.431c-0.641,0-1.162,0.521-1.162,1.163h2.324C79.542,2.952,79.022,2.431,78.381,2.431z"/><path xmlns="http://www.w3.org/2000/svg" fill="#7A7A7A" d="M77.219,3.594c0,0.64,0.521,1.162,1.162,1.162c0.642,0,1.162-0.521,1.162-1.162H77.219z"/></g><circle xmlns="http://www.w3.org/2000/svg" cx="78.38" cy="3.591" r=".496" fill="#8D8C8C"/></g><g xmlns="http://www.w3.org/2000/svg"><g xmlns="http://www.w3.org/2000/svg"><path xmlns="http://www.w3.org/2000/svg" fill="#A8A8A8" d="M85.556,2.431c-0.641,0-1.162,0.521-1.162,1.163h2.324C86.718,2.952,86.198,2.431,85.556,2.431z"/><path xmlns="http://www.w3.org/2000/svg" fill="#7A7A7A" d="M84.394,3.594c0,0.64,0.521,1.162,1.162,1.162c0.642,0,1.162-0.521,1.162-1.162H84.394z"/></g><circle xmlns="http://www.w3.org/2000/svg" cx="85.556" cy="3.591" r=".496" fill="#8D8C8C"/></g></g></g><circle xmlns="http://www.w3.org/2000/svg" id="connector30pin" cx="6.627" cy="3.594" r="1.81" fill="none"/><circle xmlns="http://www.w3.org/2000/svg" id="connector29pin" cx="13.802" cy="3.594" r="1.81" fill="none"/><circle xmlns="http://www.w3.org/2000/svg" id="connector28pin" cx="20.977" cy="3.594" r="1.81" fill="none"/><circle xmlns="http://www.w3.org/2000/svg" id="connector27pin" cx="28.154" cy="3.594" r="1.81" fill="none"/><circle xmlns="http://www.w3.org/2000/svg" id="connector26pin" cx="35.33" cy="10.793" r="1.812" fill="none"/><circle xmlns="http://www.w3.org/2000/svg" id="connector25pin" cx="35.33" cy="3.594" r="1.81" fill="none"/><circle xmlns="http://www.w3.org/2000/svg" id="connector24pin" cx="42.506" cy="3.594" r="1.81" fill="none"/><circle xmlns="http://www.w3.org/2000/svg" id="connector23pin" cx="49.681" cy="3.594" r="1.81" fill="none"/><circle xmlns="http://www.w3.org/2000/svg" id="connector22pin" cx="56.856" cy="3.594" r="1.81" fill="none"/><circle xmlns="http://www.w3.org/2000/svg" id="connector21pin" cx="64.033" cy="3.594" r="1.81" fill="none"/><circle xmlns="http://www.w3.org/2000/svg" id="connector20pin" cx="71.208" cy="3.594" r="1.81" fill="none"/><circle xmlns="http://www.w3.org/2000/svg" id="connector19pin" cx="78.384" cy="3.594" r="1.81" fill="none"/><path xmlns="http://www.w3.org/2000/svg" id="connector18pin" fill="none" d="M85.559,5.405c-1,0-1.812-0.812-1.812-1.812c0-0.999,0.812-1.812,1.812-1.812c0.997,0,1.811,0.812,1.811,1.812C87.367,4.594,86.556,5.405,85.559,5.405z"/><path xmlns="http://www.w3.org/2000/svg" id="connector17pin" fill="none" d="M85.559,12.605c-1,0-1.812-0.812-1.812-1.812c0-0.999,0.812-1.812,1.812-1.812c0.997,0,1.811,0.812,1.811,1.812C87.367,11.795,86.556,12.605,85.559,12.605z"/><path xmlns="http://www.w3.org/2000/svg" id="connector16pin" fill="none" d="M85.559,19.805c-1,0-1.812-0.812-1.812-1.812c0-0.999,0.812-1.812,1.812-1.812c0.997,0,1.811,0.812,1.811,1.812C87.367,18.995,86.556,19.805,85.559,19.805z"/><path xmlns="http://www.w3.org/2000/svg" id="connector15pin" fill="none" d="M85.559,27.006c-1,0-1.812-0.812-1.812-1.812c0-0.999,0.812-1.812,1.812-1.812c0.997,0,1.811,0.812,1.811,1.812C87.367,26.196,86.556,27.006,85.559,27.006z"/><path xmlns="http://www.w3.org/2000/svg" id="connector14pin" fill="none" d="M85.559,34.206c-1,0-1.812-0.812-1.812-1.812c0-0.999,0.812-1.812,1.812-1.812c0.997,0,1.811,0.812,1.811,1.812C87.367,33.395,86.556,34.206,85.559,34.206z"/><path xmlns="http://www.w3.org/2000/svg" id="connector13pin" fill="none" d="M85.559,41.407c-1,0-1.812-0.812-1.812-1.812c0-0.999,0.812-1.812,1.812-1.812c0.997,0,1.811,0.812,1.811,1.812C87.367,40.595,86.556,41.407,85.559,41.407z"/><path xmlns="http://www.w3.org/2000/svg" id="connector12pin" fill="none" d="M86.84,48.075c-0.326,0.328-0.779,0.531-1.277,0.531c-1,0-1.812-0.812-1.812-1.812c0-0.998,0.812-1.812,1.812-1.812c0.997,0,1.811,0.812,1.811,1.812C87.37,47.295,87.166,47.749,86.84,48.075z"/><circle xmlns="http://www.w3.org/2000/svg" id="connector11pin" cx="78.384" cy="46.793" r="1.812" fill="none"/><path xmlns="http://www.w3.org/2000/svg" id="connector10pin" fill="none" d="M71.208,48.605c-1,0-1.812-0.812-1.812-1.812s0.812-1.812,1.812-1.812c0.997,0,1.812,0.812,1.812,1.812C73.015,47.795,72.205,48.605,71.208,48.605z"/><path xmlns="http://www.w3.org/2000/svg" id="connector9pin" fill="none" d="M64.033,48.605c-1,0-1.812-0.812-1.812-1.812s0.812-1.812,1.812-1.812c0.999,0,1.812,0.812,1.812,1.812C65.842,47.795,65.032,48.605,64.033,48.605z"/><circle xmlns="http://www.w3.org/2000/svg" id="connector8pin" cx="56.856" cy="46.793" r="1.812" fill="none"/><circle xmlns="http://www.w3.org/2000/svg" id="connector7pin" cx="49.681" cy="46.793" r="1.812" fill="none"/><circle xmlns="http://www.w3.org/2000/svg" id="connector6pin" cx="42.506" cy="46.793" r="1.812" fill="none"/><circle xmlns="http://www.w3.org/2000/svg" id="connector5pin" cx="35.33" cy="39.593" r="1.812" fill="none"/><circle xmlns="http://www.w3.org/2000/svg" id="connector4pin" cx="35.33" cy="46.793" r="1.812" fill="none"/><circle xmlns="http://www.w3.org/2000/svg" id="connector3pin" cx="28.155" cy="46.793" r="1.812" fill="none"/><circle xmlns="http://www.w3.org/2000/svg" id="connector2pin" cx="20.977" cy="46.793" r="1.812" fill="none"/><circle xmlns="http://www.w3.org/2000/svg" id="connector1pin" cx="13.802" cy="46.793" r="1.812" fill="none"/><circle xmlns="http://www.w3.org/2000/svg" id="connector0pin" cx="6.626" cy="46.793" r="1.812" fill="none"/></svg>