<svg xmlns="http://www.w3.org/2000/svg" xmlns:xml="http://www.w3.org/XML/1998/namespace" id="svg" width="196.12" height="68.22" x="0" y="0" enable-background="new 0 0 147.09 51.165" version="1.1" viewBox="0 0 147.09 51.165" xml:space="preserve"><g xmlns="http://www.w3.org/2000/svg" id="breadboard"><rect xmlns="http://www.w3.org/2000/svg" width="142.178" height="5.107" x="4.074" y="1.042" fill="#8C8B8B"/><rect xmlns="http://www.w3.org/2000/svg" width="142.178" height="5.106" x="4.074" y="44.215" fill="#8C8B8B"/><g xmlns="http://www.w3.org/2000/svg"><path xmlns="http://www.w3.org/2000/svg" fill="#1E7A33" d="M2.906,0v51.023l144-0.142V-0.142L2.906,0z M6.626,48.605c-0.999,0-1.811-0.812-1.811-1.812s0.812-1.812,1.811-1.812s1.811,0.812,1.811,1.812C8.436,47.795,7.625,48.605,6.626,48.605z M6.626,5.405c-0.999,0-1.811-0.812-1.811-1.812c0-0.999,0.812-1.812,1.811-1.812s1.811,0.812,1.811,1.812C8.436,4.594,7.625,5.405,6.626,5.405z M13.802,48.605c-0.999,0-1.811-0.812-1.811-1.812s0.812-1.812,1.811-1.812s1.811,0.812,1.811,1.812C15.613,47.795,14.801,48.605,13.802,48.605z M13.802,5.405c-0.999,0-1.811-0.812-1.811-1.812c0-0.999,0.812-1.812,1.811-1.812s1.811,0.812,1.811,1.812C15.613,4.594,14.801,5.405,13.802,5.405z M20.978,48.605c-0.999,0-1.811-0.812-1.811-1.812s0.812-1.812,1.811-1.812s1.811,0.812,1.811,1.812C22.787,47.795,21.977,48.605,20.978,48.605z M20.978,5.405c-0.999,0-1.811-0.812-1.811-1.812c0-0.999,0.812-1.812,1.811-1.812s1.811,0.812,1.811,1.812C22.787,4.594,21.977,5.405,20.978,5.405z M28.156,48.605c-1,0-1.812-0.812-1.812-1.812s0.812-1.812,1.812-1.812c0.999,0,1.81,0.812,1.81,1.812C29.963,47.795,29.155,48.605,28.156,48.605z M28.156,5.405c-1,0-1.812-0.812-1.812-1.812c0-0.999,0.812-1.812,1.812-1.812c0.999,0,1.81,0.812,1.81,1.812C29.963,4.594,29.155,5.405,28.156,5.405z M35.33,48.605c-1,0-1.812-0.812-1.812-1.812s0.812-1.812,1.812-1.812c0.999,0,1.81,0.812,1.81,1.812C37.139,47.795,36.329,48.605,35.33,48.605z M52.42,27.9c-0.5,0-0.906-0.405-0.906-0.905c0-0.498,0.406-0.906,0.906-0.906c0.498,0,0.904,0.406,0.904,0.906C53.324,27.497,52.918,27.9,52.42,27.9z M35.33,5.405c-1,0-1.812-0.812-1.812-1.812c0-0.999,0.812-1.812,1.812-1.812c0.999,0,1.81,0.812,1.81,1.812C37.139,4.594,36.329,5.405,35.33,5.405z M52.42,24.3c-0.5,0-0.906-0.405-0.906-0.905s0.406-0.906,0.906-0.906c0.498,0,0.904,0.406,0.904,0.906S52.918,24.3,52.42,24.3z M42.506,48.605c-1,0-1.811-0.812-1.811-1.812s0.812-1.812,1.811-1.812c1,0,1.81,0.812,1.81,1.812C44.316,47.795,43.506,48.605,42.506,48.605z M42.506,5.405c-1,0-1.811-0.812-1.811-1.812c0-0.999,0.812-1.812,1.811-1.812c1,0,1.81,0.812,1.81,1.812C44.316,4.594,43.506,5.405,42.506,5.405z M49.682,48.605c-1,0-1.812-0.812-1.812-1.812s0.812-1.812,1.812-1.812s1.811,0.812,1.811,1.812C51.492,47.795,50.681,48.605,49.682,48.605z M49.682,5.405c-1,0-1.812-0.812-1.812-1.812c0-0.999,0.812-1.812,1.812-1.812s1.811,0.812,1.811,1.812C51.492,4.594,50.681,5.405,49.682,5.405z M56.857,48.605c-1,0-1.811-0.812-1.811-1.812s0.811-1.812,1.811-1.812c0.998,0,1.81,0.812,1.81,1.812C58.666,47.795,57.855,48.605,56.857,48.605z M56.857,5.405c-1,0-1.811-0.812-1.811-1.812c0-0.999,0.811-1.812,1.811-1.812c0.998,0,1.81,0.812,1.81,1.812C58.666,4.594,57.855,5.405,56.857,5.405z M64.033,48.605c-1,0-1.812-0.812-1.812-1.812s0.812-1.812,1.812-1.812c0.999,0,1.812,0.812,1.812,1.812C65.842,47.795,65.032,48.605,64.033,48.605z M64.033,5.405c-1,0-1.812-0.812-1.812-1.812c0-0.999,0.812-1.812,1.812-1.812c0.999,0,1.812,0.812,1.812,1.812C65.842,4.594,65.032,5.405,64.033,5.405z M71.208,48.605c-1,0-1.812-0.812-1.812-1.812s0.812-1.812,1.812-1.812c0.997,0,1.81,0.812,1.81,1.812C73.016,47.795,72.205,48.605,71.208,48.605z M71.208,5.405c-1,0-1.812-0.812-1.812-1.812c0-0.999,0.812-1.812,1.812-1.812c0.997,0,1.81,0.812,1.81,1.812C73.016,4.594,72.205,5.405,71.208,5.405z M78.385,48.605c-1,0-1.812-0.812-1.812-1.812s0.812-1.812,1.812-1.812c0.998,0,1.812,0.812,1.812,1.812C80.195,47.795,79.383,48.605,78.385,48.605z M92.786,48.605c-1,0-1.812-0.812-1.812-1.812s0.812-1.812,1.812-1.812c0.996,0,1.811,0.812,1.811,1.812C94.596,47.795,93.782,48.605,92.786,48.605z M99.986,48.605c-1,0-1.812-0.812-1.812-1.812s0.812-1.812,1.812-1.812c0.997,0,1.811,0.812,1.811,1.812C101.795,47.795,100.983,48.605,99.986,48.605z M107.186,48.605c-1,0-1.812-0.812-1.812-1.812s0.812-1.812,1.812-1.812c0.996,0,1.81,0.812,1.81,1.812C108.995,47.795,108.182,48.605,107.186,48.605z M114.385,48.605c-1,0-1.811-0.812-1.811-1.812s0.811-1.812,1.811-1.812c0.998,0,1.812,0.812,1.812,1.812C116.197,47.795,115.383,48.605,114.385,48.605z M121.586,48.605c-1,0-1.812-0.812-1.812-1.812s0.812-1.812,1.812-1.812c0.996,0,1.811,0.812,1.811,1.812C123.395,47.795,122.583,48.605,121.586,48.605z M128.786,48.605c-1,0-1.812-0.812-1.812-1.812s0.812-1.812,1.812-1.812c0.998,0,1.811,0.812,1.811,1.812C130.596,47.795,129.784,48.605,128.786,48.605z M135.988,48.605c-1,0-1.812-0.812-1.812-1.812s0.812-1.812,1.812-1.812c0.998,0,1.809,0.812,1.809,1.812C137.795,47.795,136.986,48.605,135.988,48.605z M143.186,48.605c-1,0-1.812-0.812-1.812-1.812s0.812-1.812,1.812-1.812c0.998,0,1.81,0.812,1.81,1.812C144.995,47.795,144.184,48.605,143.186,48.605z M78.385,5.405c-1,0-1.812-0.812-1.812-1.812c0-0.999,0.812-1.812,1.812-1.812c0.998,0,1.812,0.812,1.812,1.812C80.195,4.594,79.383,5.405,78.385,5.405z M86.84,48.075c-0.328,0.328-0.781,0.531-1.279,0.531c-1,0-1.812-0.812-1.812-1.812c0-0.998,0.812-1.812,1.812-1.812c0.998,0,1.812,0.812,1.812,1.812C87.37,47.295,87.167,47.749,86.84,48.075z M85.561,5.405c-1,0-1.812-0.812-1.812-1.812c0-0.999,0.812-1.812,1.812-1.812c0.996,0,1.81,0.812,1.81,1.812C87.368,4.594,86.557,5.405,85.561,5.405z M92.76,5.405c-1,0-1.811-0.812-1.811-1.812c0-0.999,0.811-1.812,1.811-1.812c0.998,0,1.812,0.812,1.812,1.812C94.57,4.594,93.758,5.405,92.76,5.405z M99.961,5.405c-1,0-1.812-0.812-1.812-1.812c0-0.999,0.812-1.812,1.812-1.812c0.996,0,1.811,0.812,1.811,1.812C101.768,4.594,100.958,5.405,99.961,5.405z M99.961,27.004c-1,0-1.812-0.812-1.812-1.812s0.812-1.812,1.812-1.812c0.996,0,1.811,0.812,1.811,1.812C101.768,26.194,100.958,27.004,99.961,27.004z M107.161,27.004c-1,0-1.812-0.812-1.812-1.812s0.812-1.812,1.812-1.812c0.998,0,1.811,0.812,1.811,1.812C108.969,26.194,108.159,27.004,107.161,27.004z M114.363,27.004c-1,0-1.812-0.812-1.812-1.812s0.812-1.812,1.812-1.812c0.995,0,1.809,0.812,1.809,1.812C116.168,26.194,115.358,27.004,114.363,27.004z M121.561,27.004c-1,0-1.812-0.812-1.812-1.812s0.812-1.812,1.812-1.812c0.998,0,1.81,0.812,1.81,1.812S122.559,27.004,121.561,27.004z M121.561,34.206c-1,0-1.812-0.812-1.812-1.812c0-0.999,0.812-1.812,1.812-1.812c0.998,0,1.81,0.812,1.81,1.812S122.559,34.206,121.561,34.206z M99.961,19.804c-1,0-1.812-0.812-1.812-1.811s0.812-1.812,1.812-1.812c0.996,0,1.811,0.812,1.811,1.812C101.768,18.994,100.958,19.804,99.961,19.804z M107.161,19.804c-1,0-1.812-0.812-1.812-1.811s0.812-1.812,1.812-1.812c0.998,0,1.811,0.812,1.811,1.812C108.969,18.994,108.159,19.804,107.161,19.804z M114.363,19.804c-1,0-1.812-0.812-1.812-1.811s0.812-1.812,1.812-1.812c0.995,0,1.809,0.812,1.809,1.812C116.168,18.994,115.358,19.804,114.363,19.804z M121.561,19.804c-1,0-1.812-0.812-1.812-1.811s0.812-1.812,1.812-1.812c0.998,0,1.81,0.812,1.81,1.812C123.37,18.994,122.559,19.804,121.561,19.804z M143.163,27.004c-1,0-1.812-0.812-1.812-1.812s0.812-1.812,1.812-1.812c0.998,0,1.809,0.812,1.809,1.812C144.969,26.194,144.161,27.004,143.163,27.004z M143.163,34.206c-1,0-1.812-0.812-1.812-1.812c0-0.999,0.812-1.812,1.812-1.812c0.998,0,1.809,0.812,1.809,1.812C144.969,33.394,144.161,34.206,143.163,34.206z M143.163,19.804c-1,0-1.812-0.812-1.812-1.811s0.812-1.812,1.812-1.812c0.998,0,1.809,0.812,1.809,1.812C144.969,18.994,144.161,19.804,143.163,19.804z M135.961,5.405c-1,0-1.812-0.812-1.812-1.812c0-0.999,0.812-1.812,1.812-1.812c0.998,0,1.811,0.812,1.811,1.812C137.77,4.594,136.959,5.405,135.961,5.405z M143.163,5.405c-1,0-1.812-0.812-1.812-1.812c0-0.999,0.812-1.812,1.812-1.812c0.998,0,1.809,0.812,1.809,1.812C144.969,4.594,144.161,5.405,143.163,5.405z M121.561,5.405c-1,0-1.812-0.812-1.812-1.812c0-0.999,0.812-1.812,1.812-1.812c0.998,0,1.81,0.812,1.81,1.812C123.37,4.594,122.559,5.405,121.561,5.405z M128.762,5.405c-1,0-1.812-0.812-1.812-1.812c0-0.999,0.812-1.812,1.812-1.812c0.998,0,1.81,0.812,1.81,1.812C130.57,4.594,129.76,5.405,128.762,5.405z M107.161,5.405c-1,0-1.812-0.812-1.812-1.812c0-0.999,0.812-1.812,1.812-1.812c0.998,0,1.811,0.812,1.811,1.812C108.969,4.594,108.159,5.405,107.161,5.405z M114.363,5.405c-1,0-1.812-0.812-1.812-1.812c0-0.999,0.812-1.812,1.812-1.812c0.995,0,1.809,0.812,1.809,1.812C116.168,4.594,115.358,5.405,114.363,5.405z"/><path xmlns="http://www.w3.org/2000/svg" fill="#147390" d="M87.37,46.795c0,0.5-0.203,0.953-0.529,1.279C87.167,47.749,87.37,47.295,87.37,46.795z"/></g><g xmlns="http://www.w3.org/2000/svg"><path xmlns="http://www.w3.org/2000/svg" fill="#9A916C" d="M6.626,1.042c-1.407,0-2.552,1.146-2.552,2.555c0,1.406,1.145,2.552,2.552,2.552c1.409,0,2.553-1.146,2.553-2.552C9.179,2.187,8.035,1.042,6.626,1.042z M6.626,5.404c-0.999,0-1.811-0.812-1.811-1.811s0.812-1.812,1.811-1.812s1.811,0.812,1.811,1.812C8.436,4.594,7.625,5.404,6.626,5.404z"/><path xmlns="http://www.w3.org/2000/svg" fill="#9A916C" d="M13.802,1.042c-1.408,0-2.553,1.146-2.553,2.555c0,1.406,1.145,2.552,2.553,2.552c1.409,0,2.552-1.146,2.552-2.552C16.354,2.187,15.211,1.042,13.802,1.042z M13.802,5.404c-0.999,0-1.811-0.812-1.811-1.811s0.812-1.812,1.811-1.812s1.811,0.812,1.811,1.812S14.801,5.404,13.802,5.404z"/><path xmlns="http://www.w3.org/2000/svg" fill="#9A916C" d="M20.978,1.042c-1.407,0-2.552,1.146-2.552,2.555c0,1.406,1.145,2.552,2.552,2.552c1.409,0,2.553-1.146,2.553-2.552C23.531,2.187,22.387,1.042,20.978,1.042z M20.978,5.404c-0.999,0-1.811-0.812-1.811-1.811s0.812-1.812,1.811-1.812s1.811,0.812,1.811,1.812S21.977,5.404,20.978,5.404z"/><path xmlns="http://www.w3.org/2000/svg" fill="#9A916C" d="M28.156,1.042c-1.408,0-2.553,1.146-2.553,2.555c0,1.406,1.145,2.552,2.553,2.552c1.407,0,2.551-1.146,2.551-2.552C30.705,2.186,29.563,1.042,28.156,1.042z M28.156,5.404c-1,0-1.812-0.812-1.812-1.811s0.812-1.812,1.812-1.812c0.999,0,1.81,0.812,1.81,1.812C29.964,4.594,29.155,5.404,28.156,5.404z"/><path xmlns="http://www.w3.org/2000/svg" fill="#9A916C" d="M35.33,1.042c-1.407,0-2.552,1.146-2.552,2.555c0,1.406,1.145,2.552,2.552,2.552c1.408,0,2.552-1.146,2.552-2.552C37.882,2.187,36.74,1.042,35.33,1.042z M35.33,5.404c-1,0-1.812-0.812-1.812-1.811s0.812-1.812,1.812-1.812c0.999,0,1.81,0.812,1.81,1.812C37.139,4.594,36.329,5.404,35.33,5.404z"/><path xmlns="http://www.w3.org/2000/svg" fill="#9A916C" d="M52.42,22.118c-0.704,0-1.277,0.573-1.277,1.277c0,0.703,0.573,1.276,1.277,1.276s1.275-0.573,1.275-1.276S53.124,22.118,52.42,22.118z M52.42,24.3c-0.5,0-0.906-0.406-0.906-0.905c0-0.5,0.406-0.906,0.906-0.906c0.498,0,0.904,0.406,0.904,0.906S52.918,24.3,52.42,24.3z"/><path xmlns="http://www.w3.org/2000/svg" fill="#9A916C" d="M42.506,1.042c-1.408,0-2.552,1.146-2.552,2.555c0,1.406,1.145,2.552,2.552,2.552c1.406,0,2.551-1.146,2.551-2.552C45.057,2.187,43.914,1.042,42.506,1.042z M42.506,5.404c-1,0-1.811-0.812-1.811-1.811s0.812-1.812,1.811-1.812c1,0,1.81,0.812,1.81,1.812S43.506,5.404,42.506,5.404z"/><path xmlns="http://www.w3.org/2000/svg" fill="#9A916C" d="M49.682,1.042c-1.408,0-2.552,1.146-2.552,2.555c0,1.406,1.144,2.552,2.552,2.552s2.554-1.146,2.554-2.552C52.236,2.187,51.091,1.042,49.682,1.042z M49.682,5.404c-1,0-1.812-0.812-1.812-1.811s0.812-1.812,1.812-1.812s1.811,0.812,1.811,1.812S50.681,5.404,49.682,5.404z"/><path xmlns="http://www.w3.org/2000/svg" fill="#9A916C" d="M56.857,1.042c-1.407,0-2.553,1.146-2.553,2.555c0,1.406,1.146,2.552,2.553,2.552c1.408,0,2.552-1.146,2.552-2.552C59.408,2.187,58.265,1.042,56.857,1.042z M56.857,5.404c-1,0-1.811-0.812-1.811-1.811s0.811-1.812,1.811-1.812c0.998,0,1.81,0.812,1.81,1.812S57.855,5.404,56.857,5.404z"/><path xmlns="http://www.w3.org/2000/svg" fill="#9A916C" d="M64.033,1.042c-1.408,0-2.554,1.146-2.554,2.555c0,1.406,1.146,2.552,2.554,2.552c1.407,0,2.551-1.146,2.551-2.552C66.584,2.186,65.441,1.042,64.033,1.042z M64.033,5.404c-1,0-1.812-0.812-1.812-1.811s0.812-1.812,1.812-1.812c0.999,0,1.812,0.812,1.812,1.812C65.845,4.594,65.032,5.404,64.033,5.404z"/><path xmlns="http://www.w3.org/2000/svg" fill="#9A916C" d="M71.208,1.042c-1.407,0-2.554,1.146-2.554,2.555c0,1.406,1.146,2.552,2.554,2.552s2.552-1.146,2.552-2.552C73.76,2.187,72.617,1.042,71.208,1.042z M71.208,5.404c-1,0-1.812-0.812-1.812-1.811s0.812-1.812,1.812-1.812c0.997,0,1.81,0.812,1.81,1.812C73.016,4.594,72.205,5.404,71.208,5.404z"/><path xmlns="http://www.w3.org/2000/svg" fill="#9A916C" d="M78.385,1.042c-1.408,0-2.557,1.146-2.557,2.555c0,1.406,1.146,2.552,2.557,2.552c1.404,0,2.551-1.146,2.551-2.552C80.936,2.187,79.792,1.042,78.385,1.042z M78.385,5.404c-1,0-1.812-0.812-1.812-1.811s0.812-1.812,1.812-1.812c0.998,0,1.812,0.812,1.812,1.812S79.383,5.404,78.385,5.404z"/><path xmlns="http://www.w3.org/2000/svg" fill="#9A916C" d="M6.626,44.243c-1.407,0-2.552,1.146-2.552,2.555c0,1.406,1.145,2.553,2.552,2.553c1.409,0,2.553-1.146,2.553-2.553C9.179,45.387,8.035,44.243,6.626,44.243z M6.626,48.604c-0.999,0-1.811-0.812-1.811-1.811c0-1,0.812-1.812,1.811-1.812s1.811,0.812,1.811,1.812C8.436,47.793,7.625,48.604,6.626,48.604z"/><path xmlns="http://www.w3.org/2000/svg" fill="#9A916C" d="M13.802,44.243c-1.408,0-2.553,1.146-2.553,2.555c0,1.406,1.145,2.553,2.553,2.553c1.409,0,2.552-1.146,2.552-2.553C16.354,45.387,15.211,44.243,13.802,44.243z M13.802,48.604c-0.999,0-1.811-0.812-1.811-1.811c0-1,0.812-1.812,1.811-1.812s1.811,0.812,1.811,1.812S14.801,48.604,13.802,48.604z"/><path xmlns="http://www.w3.org/2000/svg" fill="#9A916C" d="M20.978,44.243c-1.407,0-2.552,1.146-2.552,2.555c0,1.406,1.145,2.553,2.552,2.553c1.409,0,2.553-1.146,2.553-2.553C23.531,45.387,22.387,44.243,20.978,44.243z M20.978,48.604c-0.999,0-1.811-0.812-1.811-1.811c0-1,0.812-1.812,1.811-1.812s1.811,0.812,1.811,1.812S21.977,48.604,20.978,48.604z"/><path xmlns="http://www.w3.org/2000/svg" fill="#9A916C" d="M28.156,44.243c-1.408,0-2.553,1.146-2.553,2.555c0,1.406,1.145,2.553,2.553,2.553c1.407,0,2.551-1.146,2.551-2.553C30.705,45.385,29.563,44.243,28.156,44.243z M28.156,48.604c-1,0-1.812-0.812-1.812-1.811c0-1,0.812-1.812,1.812-1.812c0.999,0,1.81,0.812,1.81,1.812C29.964,47.793,29.155,48.604,28.156,48.604z"/><path xmlns="http://www.w3.org/2000/svg" fill="#9A916C" d="M35.33,44.243c-1.407,0-2.552,1.146-2.552,2.555c0,1.406,1.145,2.553,2.552,2.553c1.408,0,2.552-1.146,2.552-2.553C37.882,45.387,36.74,44.243,35.33,44.243z M35.33,48.604c-1,0-1.812-0.812-1.812-1.811c0-1,0.812-1.812,1.812-1.812c0.999,0,1.81,0.812,1.81,1.812C37.139,47.793,36.329,48.604,35.33,48.604z"/><path xmlns="http://www.w3.org/2000/svg" fill="#9A916C" d="M52.42,25.718c-0.704,0-1.277,0.576-1.277,1.279s0.573,1.275,1.277,1.275s1.275-0.572,1.275-1.275C53.696,26.292,53.124,25.718,52.42,25.718z M52.42,27.9c-0.5,0-0.906-0.405-0.906-0.905c0-0.498,0.406-0.906,0.906-0.906c0.498,0,0.904,0.406,0.904,0.906S52.918,27.9,52.42,27.9z"/><path xmlns="http://www.w3.org/2000/svg" fill="#9A916C" d="M42.506,44.243c-1.408,0-2.552,1.146-2.552,2.555c0,1.406,1.145,2.553,2.552,2.553c1.406,0,2.551-1.146,2.551-2.553C45.057,45.387,43.914,44.243,42.506,44.243z M42.506,48.604c-1,0-1.811-0.812-1.811-1.811c0-1,0.812-1.812,1.811-1.812c1,0,1.81,0.812,1.81,1.812S43.506,48.604,42.506,48.604z"/><path xmlns="http://www.w3.org/2000/svg" fill="#9A916C" d="M49.682,44.243c-1.408,0-2.552,1.146-2.552,2.555c0,1.406,1.144,2.553,2.552,2.553s2.554-1.146,2.554-2.553C52.236,45.387,51.091,44.243,49.682,44.243z M49.682,48.604c-1,0-1.812-0.812-1.812-1.811c0-1,0.812-1.812,1.812-1.812s1.811,0.812,1.811,1.812S50.681,48.604,49.682,48.604z"/><path xmlns="http://www.w3.org/2000/svg" fill="#9A916C" d="M56.857,44.243c-1.407,0-2.553,1.146-2.553,2.555c0,1.406,1.146,2.553,2.553,2.553c1.408,0,2.552-1.146,2.552-2.553C59.408,45.387,58.265,44.243,56.857,44.243z M56.857,48.604c-1,0-1.811-0.812-1.811-1.811c0-1,0.811-1.812,1.811-1.812c0.998,0,1.81,0.812,1.81,1.812S57.855,48.604,56.857,48.604z"/><path xmlns="http://www.w3.org/2000/svg" fill="#9A916C" d="M64.033,44.243c-1.408,0-2.554,1.146-2.554,2.555c0,1.406,1.146,2.553,2.554,2.553c1.407,0,2.551-1.146,2.551-2.553C66.584,45.385,65.441,44.243,64.033,44.243z M64.033,48.604c-1,0-1.812-0.812-1.812-1.811c0-1,0.812-1.812,1.812-1.812c0.999,0,1.812,0.812,1.812,1.812S65.032,48.604,64.033,48.604z"/><path xmlns="http://www.w3.org/2000/svg" fill="#9A916C" d="M71.208,44.243c-1.407,0-2.554,1.146-2.554,2.555c0,1.406,1.146,2.553,2.554,2.553s2.552-1.146,2.552-2.553C73.76,45.387,72.617,44.243,71.208,44.243z M71.208,48.604c-1,0-1.812-0.812-1.812-1.811c0-1,0.812-1.812,1.812-1.812c0.997,0,1.81,0.812,1.81,1.812C73.016,47.793,72.205,48.604,71.208,48.604z"/><path xmlns="http://www.w3.org/2000/svg" fill="#9A916C" d="M78.385,44.243c-1.408,0-2.557,1.146-2.557,2.555c0,1.406,1.146,2.553,2.557,2.553c1.404,0,2.551-1.146,2.551-2.553C80.936,45.387,79.792,44.243,78.385,44.243z M78.385,48.604c-1,0-1.812-0.812-1.812-1.811c0-1,0.812-1.812,1.812-1.812c0.998,0,1.812,0.812,1.812,1.812S79.383,48.604,78.385,48.604z"/><path xmlns="http://www.w3.org/2000/svg" fill="#9A916C" d="M85.561,1.042c-1.407,0-2.553,1.146-2.553,2.555c0,1.406,1.146,2.552,2.553,2.552c1.408,0,2.552-1.146,2.552-2.552C88.113,2.187,86.969,1.042,85.561,1.042z M85.561,5.404c-1,0-1.812-0.812-1.812-1.811s0.812-1.812,1.812-1.812c0.996,0,1.81,0.812,1.81,1.812S86.557,5.404,85.561,5.404z"/><path xmlns="http://www.w3.org/2000/svg" fill="#9A916C" d="M92.76,1.042c-1.406,0-2.553,1.146-2.553,2.555c0,1.406,1.146,2.552,2.553,2.552c1.408,0,2.553-1.146,2.553-2.552C95.311,2.187,94.168,1.042,92.76,1.042z M92.76,5.404c-1,0-1.811-0.812-1.811-1.811s0.811-1.812,1.811-1.812c0.998,0,1.812,0.812,1.812,1.812S93.758,5.404,92.76,5.404z"/><path xmlns="http://www.w3.org/2000/svg" fill="#9A916C" d="M99.961,1.042c-1.406,0-2.555,1.146-2.555,2.555c0,1.406,1.146,2.552,2.555,2.552s2.551-1.146,2.551-2.552C102.512,2.187,101.37,1.042,99.961,1.042z M99.961,5.404c-1,0-1.812-0.812-1.812-1.811s0.812-1.812,1.812-1.812c0.996,0,1.811,0.812,1.811,1.812S100.958,5.404,99.961,5.404z"/><path xmlns="http://www.w3.org/2000/svg" fill="#9A916C" d="M107.161,1.042c-1.406,0-2.554,1.146-2.554,2.555c0,1.406,1.146,2.552,2.554,2.552c1.408,0,2.553-1.146,2.553-2.552C109.713,2.187,108.57,1.042,107.161,1.042z M107.161,5.404c-1,0-1.812-0.812-1.812-1.811s0.812-1.812,1.812-1.812c0.998,0,1.811,0.812,1.811,1.812S108.159,5.404,107.161,5.404z"/><path xmlns="http://www.w3.org/2000/svg" fill="#9A916C" d="M114.363,1.042c-1.408,0-2.556,1.146-2.556,2.555c0,1.406,1.146,2.552,2.556,2.552c1.408,0,2.551-1.146,2.551-2.552C116.913,2.187,115.77,1.042,114.363,1.042z M114.363,5.404c-1,0-1.812-0.812-1.812-1.811s0.812-1.812,1.812-1.812c0.995,0,1.809,0.812,1.809,1.812S115.358,5.404,114.363,5.404z"/><path xmlns="http://www.w3.org/2000/svg" fill="#9A916C" d="M121.561,1.042c-1.407,0-2.553,1.146-2.553,2.555c0,1.406,1.146,2.552,2.553,2.552c1.408,0,2.552-1.146,2.552-2.552C124.113,2.187,122.971,1.042,121.561,1.042z M121.561,5.404c-1,0-1.812-0.812-1.812-1.811s0.812-1.812,1.812-1.812c0.998,0,1.81,0.812,1.81,1.812S122.559,5.404,121.561,5.404z"/><path xmlns="http://www.w3.org/2000/svg" fill="#9A916C" d="M128.762,1.042c-1.408,0-2.555,1.146-2.555,2.555c0,1.406,1.146,2.552,2.555,2.552s2.551-1.146,2.551-2.552C131.313,2.187,130.17,1.042,128.762,1.042z M128.762,5.404c-1,0-1.812-0.812-1.812-1.811s0.812-1.812,1.812-1.812c0.998,0,1.81,0.812,1.81,1.812S129.76,5.404,128.762,5.404z"/><path xmlns="http://www.w3.org/2000/svg" fill="#9A916C" d="M135.961,1.042c-1.406,0-2.553,1.146-2.553,2.555c0,1.406,1.146,2.552,2.553,2.552c1.408,0,2.553-1.146,2.553-2.552C138.514,2.187,137.37,1.042,135.961,1.042z M135.961,5.404c-1,0-1.812-0.812-1.812-1.811s0.812-1.812,1.812-1.812c0.998,0,1.811,0.812,1.811,1.812S136.959,5.404,135.961,5.404z"/><path xmlns="http://www.w3.org/2000/svg" fill="#9A916C" d="M143.163,1.042c-1.408,0-2.556,1.146-2.556,2.555c0,1.406,1.146,2.552,2.556,2.552s2.551-1.146,2.551-2.552C145.713,2.187,144.572,1.042,143.163,1.042z M143.163,5.404c-1,0-1.812-0.812-1.812-1.811s0.812-1.812,1.812-1.812c0.998,0,1.809,0.812,1.809,1.812S144.161,5.404,143.163,5.404z"/><path xmlns="http://www.w3.org/2000/svg" fill="#9A916C" d="M143.163,15.442c-1.406,0-2.553,1.146-2.553,2.555c0,1.406,1.146,2.552,2.553,2.552c1.408,0,2.553-1.146,2.553-2.552C145.715,16.588,144.572,15.442,143.163,15.442z M143.163,19.804c-1,0-1.812-0.812-1.812-1.811s0.812-1.812,1.812-1.812c0.998,0,1.811,0.812,1.811,1.812S144.161,19.804,143.163,19.804z"/><path xmlns="http://www.w3.org/2000/svg" fill="#9A916C" d="M143.163,22.642c-1.406,0-2.553,1.146-2.553,2.555c0,1.406,1.146,2.551,2.553,2.551c1.408,0,2.553-1.146,2.553-2.551C145.715,23.788,144.572,22.642,143.163,22.642z M143.163,27.004c-1,0-1.812-0.812-1.812-1.812s0.812-1.812,1.812-1.812c0.998,0,1.811,0.812,1.811,1.812S144.161,27.004,143.163,27.004z"/><path xmlns="http://www.w3.org/2000/svg" fill="#9A916C" d="M143.163,29.842c-1.406,0-2.553,1.146-2.553,2.556c0,1.406,1.146,2.552,2.553,2.552c1.408,0,2.553-1.146,2.553-2.552C145.715,30.988,144.572,29.842,143.163,29.842z M143.163,34.206c-1,0-1.812-0.812-1.812-1.812s0.812-1.812,1.812-1.812c0.998,0,1.811,0.812,1.811,1.812S144.161,34.206,143.163,34.206z"/><path xmlns="http://www.w3.org/2000/svg" fill="#9A916C" d="M121.561,15.442c-1.405,0-2.553,1.146-2.553,2.555c0,1.406,1.146,2.552,2.553,2.552c1.408,0,2.554-1.146,2.554-2.552C124.115,16.588,122.971,15.442,121.561,15.442z M121.561,19.804c-1,0-1.812-0.812-1.812-1.811s0.812-1.812,1.812-1.812s1.812,0.812,1.812,1.812S122.561,19.804,121.561,19.804z"/><path xmlns="http://www.w3.org/2000/svg" fill="#9A916C" d="M121.561,22.642c-1.405,0-2.553,1.146-2.553,2.555c0,1.406,1.146,2.551,2.553,2.551c1.408,0,2.554-1.146,2.554-2.551C124.115,23.788,122.971,22.642,121.561,22.642z M121.561,27.004c-1,0-1.812-0.812-1.812-1.812s0.812-1.812,1.812-1.812s1.812,0.812,1.812,1.812S122.561,27.004,121.561,27.004z"/><path xmlns="http://www.w3.org/2000/svg" fill="#9A916C" d="M121.561,29.842c-1.405,0-2.553,1.146-2.553,2.556c0,1.406,1.146,2.552,2.553,2.552c1.408,0,2.554-1.146,2.554-2.552C124.115,30.988,122.971,29.842,121.561,29.842z M121.561,34.206c-1,0-1.812-0.812-1.812-1.812s0.812-1.812,1.812-1.812s1.812,0.812,1.812,1.812S122.561,34.206,121.561,34.206z"/><path xmlns="http://www.w3.org/2000/svg" fill="#9A916C" d="M114.363,15.442c-1.408,0-2.554,1.146-2.554,2.555c0,1.406,1.146,2.552,2.554,2.552c1.407,0,2.551-1.146,2.551-2.552C116.913,16.588,115.77,15.442,114.363,15.442z M114.363,19.804c-1,0-1.812-0.812-1.812-1.811s0.812-1.812,1.812-1.812c0.998,0,1.811,0.812,1.811,1.812S115.361,19.804,114.363,19.804z"/><path xmlns="http://www.w3.org/2000/svg" fill="#9A916C" d="M114.363,22.642c-1.408,0-2.554,1.146-2.554,2.555c0,1.406,1.146,2.551,2.554,2.551c1.407,0,2.551-1.146,2.551-2.551C116.913,23.788,115.77,22.642,114.363,22.642z M114.363,27.004c-1,0-1.812-0.812-1.812-1.812s0.812-1.812,1.812-1.812c0.998,0,1.811,0.812,1.811,1.812S115.361,27.004,114.363,27.004z"/><path xmlns="http://www.w3.org/2000/svg" fill="#9A916C" d="M107.163,15.442c-1.408,0-2.556,1.146-2.556,2.555c0,1.406,1.146,2.552,2.556,2.552s2.551-1.146,2.551-2.552C109.713,16.588,108.572,15.442,107.163,15.442z M107.163,19.804c-1,0-1.812-0.812-1.812-1.811s0.812-1.812,1.812-1.812c0.998,0,1.809,0.812,1.809,1.812S108.161,19.804,107.163,19.804z"/><path xmlns="http://www.w3.org/2000/svg" fill="#9A916C" d="M107.163,22.642c-1.408,0-2.556,1.146-2.556,2.555c0,1.406,1.146,2.551,2.556,2.551s2.551-1.146,2.551-2.551C109.713,23.788,108.572,22.642,107.163,22.642z M107.163,27.004c-1,0-1.812-0.812-1.812-1.812s0.812-1.812,1.812-1.812c0.998,0,1.809,0.812,1.809,1.812S108.161,27.004,107.163,27.004z"/><path xmlns="http://www.w3.org/2000/svg" fill="#9A916C" d="M99.963,15.442c-1.408,0-2.555,1.146-2.555,2.555c0,1.406,1.146,2.552,2.555,2.552c1.406,0,2.551-1.146,2.551-2.552C102.514,16.588,101.37,15.442,99.963,15.442z M99.963,19.804c-1,0-1.812-0.812-1.812-1.811s0.812-1.812,1.812-1.812c0.996,0,1.809,0.812,1.809,1.812S100.959,19.804,99.963,19.804z"/><path xmlns="http://www.w3.org/2000/svg" fill="#9A916C" d="M99.963,22.642c-1.408,0-2.555,1.146-2.555,2.555c0,1.406,1.146,2.551,2.555,2.551c1.406,0,2.551-1.146,2.551-2.551C102.514,23.788,101.37,22.642,99.963,22.642z M99.963,27.004c-1,0-1.812-0.812-1.812-1.812s0.812-1.812,1.812-1.812c0.996,0,1.809,0.812,1.809,1.812S100.959,27.004,99.963,27.004z"/><path xmlns="http://www.w3.org/2000/svg" fill="#9A916C" d="M85.561,44.243c-1.407,0-2.553,1.146-2.553,2.555c0,1.406,1.146,2.554,2.553,2.554c1.408,0,2.552-1.146,2.552-2.554C88.113,45.388,86.969,44.243,85.561,44.243z M85.561,48.605c-1,0-1.812-0.812-1.812-1.812c0-0.998,0.812-1.812,1.812-1.812c0.996,0,1.81,0.812,1.81,1.812S86.557,48.605,85.561,48.605z"/><path xmlns="http://www.w3.org/2000/svg" fill="#9A916C" d="M92.785,44.243c-1.406,0-2.553,1.146-2.553,2.555c0,1.406,1.146,2.554,2.553,2.554c1.408,0,2.553-1.146,2.553-2.554C95.336,45.388,94.194,44.243,92.785,44.243z M92.785,48.605c-1,0-1.811-0.812-1.811-1.812c0-0.998,0.811-1.812,1.811-1.812c0.998,0,1.812,0.812,1.812,1.812S93.783,48.605,92.785,48.605z"/><path xmlns="http://www.w3.org/2000/svg" fill="#9A916C" d="M99.988,44.243c-1.406,0-2.555,1.146-2.555,2.555c0,1.406,1.146,2.554,2.555,2.554s2.551-1.146,2.551-2.554C102.538,45.388,101.397,44.243,99.988,44.243z M99.988,48.605c-1,0-1.812-0.812-1.812-1.812c0-0.998,0.812-1.812,1.812-1.812c0.996,0,1.811,0.812,1.811,1.812S100.985,48.605,99.988,48.605z"/></g><g xmlns="http://www.w3.org/2000/svg"><g xmlns="http://www.w3.org/2000/svg"><rect xmlns="http://www.w3.org/2000/svg" width="7.675" height="2.902" x="23.219" y="12.604" fill="#8D8C8C"/><rect xmlns="http://www.w3.org/2000/svg" width="9.428" height="2.902" x="7.214" y="12.604" fill="#8D8C8C"/></g><g xmlns="http://www.w3.org/2000/svg"><rect xmlns="http://www.w3.org/2000/svg" width="7.675" height="2.9" x="23.219" y="35.375" fill="#8D8C8C"/><rect xmlns="http://www.w3.org/2000/svg" width="9.428" height="2.9" x="7.214" y="35.375" fill="#8D8C8C"/></g><g xmlns="http://www.w3.org/2000/svg"><polygon xmlns="http://www.w3.org/2000/svg" fill="#404040" points="24.482 29.644 25.571 28.818 25.571 34.629 26.525 34.629 26.525 15.73 25.571 15.73 25.571 22.061 24.482 21.234 24.482 14.76 0 14.76 0 36.122 24.482 36.122"/></g><path xmlns="http://www.w3.org/2000/svg" d="M14.394,20.892c0,0.156-0.127,0.271-0.281,0.255L3.611,20.051c-0.155-0.016-0.282-0.156-0.282-0.312v-1.744c0-0.156,0.127-0.298,0.282-0.314l10.502-1.096c0.154-0.016,0.281,0.098,0.281,0.254v0.254c0,0.156-0.127,0.296-0.281,0.309l-9.549,0.83c-0.154,0.014-0.281,0.152-0.281,0.309v0.65c0,0.156,0.127,0.296,0.281,0.309l9.549,0.83c0.154,0.014,0.281,0.152,0.281,0.309V20.892z"/><path xmlns="http://www.w3.org/2000/svg" d="M14.394,34.042c0,0.156-0.127,0.271-0.281,0.254L3.609,33.198c-0.154-0.017-0.281-0.156-0.281-0.312V31.14c0-0.156,0.127-0.298,0.281-0.312l10.504-1.1c0.154-0.018,0.281,0.1,0.281,0.254v0.258c0,0.154-0.127,0.295-0.281,0.309l-9.549,0.828c-0.154,0.014-0.281,0.15-0.281,0.309v0.65c0,0.156,0.127,0.297,0.281,0.309l9.549,0.83c0.154,0.014,0.281,0.152,0.281,0.309V34.042z"/><g xmlns="http://www.w3.org/2000/svg"><polygon xmlns="http://www.w3.org/2000/svg" fill="none" points="4.288 31.404 4.288 32.625 5.116 32.691 5.116 31.336"/><polygon xmlns="http://www.w3.org/2000/svg" fill="#939393" points="5.116 32.691 4.288 32.625 4.288 31.404 5.116 31.336"/><polygon xmlns="http://www.w3.org/2000/svg" fill="#545454" points="5.116 32.691 5.469 32.726 5.469 31.299 5.116 31.336"/></g><g xmlns="http://www.w3.org/2000/svg"><polygon xmlns="http://www.w3.org/2000/svg" fill="none" points="4.288 18.256 4.288 19.475 5.116 19.543 5.116 18.187"/><polygon xmlns="http://www.w3.org/2000/svg" fill="#939393" points="5.116 19.543 4.288 19.475 4.288 18.256 5.116 18.187"/><polygon xmlns="http://www.w3.org/2000/svg" fill="#545454" points="5.116 19.543 5.469 19.58 5.469 18.152 5.116 18.187"/></g><rect xmlns="http://www.w3.org/2000/svg" width="2.015" height="5.557" x="10.849" y="22.531" fill="#939393"/><rect xmlns="http://www.w3.org/2000/svg" width="1.114" height="5.557" x="12.864" y="22.531" fill="#545454"/><path xmlns="http://www.w3.org/2000/svg" d="M2.37,22.195c0,0.156,0.127,0.292,0.283,0.301l11.613,0.699c0.156,0.009,0.283,0.145,0.283,0.301v3.889c0,0.156-0.127,0.293-0.283,0.301L2.654,28.385c-0.156,0.01-0.283,0.145-0.283,0.301v0.518c0,0.156,0.127,0.273,0.283,0.264l13.2-0.961c0.155-0.012,0.283-0.146,0.283-0.305V22.68c0-0.156-0.127-0.294-0.283-0.305l-13.2-0.959C2.498,21.404,2.37,21.523,2.37,21.68V22.195z"/><line xmlns="http://www.w3.org/2000/svg" x1="23.886" x2=".313" y1="15.39" y2="15.39" fill="none" stroke="#FFF" stroke-linecap="round" stroke-opacity=".24"/><line xmlns="http://www.w3.org/2000/svg" x1="23.886" x2=".313" y1="35.747" y2="35.747" fill="none" stroke="#FFF" stroke-linecap="round" stroke-opacity=".15" stroke-width=".5"/><line xmlns="http://www.w3.org/2000/svg" x1="25.456" x2="25.456" y1="22.742" y2="28.135" fill="none" stroke="#FFF" stroke-linecap="round" stroke-opacity=".3"/></g><text xmlns="http://www.w3.org/2000/svg" fill="#FFF" font-family="OCRA" font-size="3" transform="matrix(1 0 0 1 3.7092 9.6274)">+5V</text><text xmlns="http://www.w3.org/2000/svg" fill="#FFF" font-family="OCRA" font-size="3" transform="matrix(1 0 0 1 11.8313 9.6274)">B6</text><text xmlns="http://www.w3.org/2000/svg" fill="#FFF" font-family="OCRA" font-size="3" transform="matrix(1 0 0 1 19.0315 9.6274)">B5</text><text xmlns="http://www.w3.org/2000/svg" fill="#FFF" font-family="OCRA" font-size="3" transform="matrix(1 0 0 1 26.2317 9.6274)">B4</text><text xmlns="http://www.w3.org/2000/svg" fill="#FFF" font-family="OCRA" font-size="3" transform="matrix(1 0 0 1 33.4314 9.6274)">B3</text><text xmlns="http://www.w3.org/2000/svg" fill="#FFF" font-family="OCRA" font-size="3" transform="matrix(1 0 0 1 40.6316 9.6274)">B2</text><text xmlns="http://www.w3.org/2000/svg" fill="#FFF" font-family="OCRA" font-size="3" transform="matrix(1 0 0 1 47.8313 9.6274)">B1</text><text xmlns="http://www.w3.org/2000/svg" fill="#FFF" font-family="OCRA" font-size="3" transform="matrix(1 0 0 1 55.0315 9.6274)">B0</text><text xmlns="http://www.w3.org/2000/svg" fill="#FFF" font-family="OCRA" font-size="3" transform="matrix(1 0 0 1 54.3049 24.6733)">E4</text><text xmlns="http://www.w3.org/2000/svg" fill="#FFF" font-family="OCRA" font-size="3" transform="matrix(1 0 0 1 54.3049 28.2729)">E5</text><text xmlns="http://www.w3.org/2000/svg" fill="#FFF" font-family="OCRA" font-size="3" transform="matrix(1 0 0 1 62.2317 9.6274)">E7</text><text xmlns="http://www.w3.org/2000/svg" fill="#FFF" font-family="OCRA" font-size="3" transform="matrix(1 0 0 1 69.4319 9.6274)">E6</text><text xmlns="http://www.w3.org/2000/svg" fill="#FFF" font-family="OCRA" font-size="3" transform="matrix(1 0 0 1 91.0315 9.6274)">F0</text><text xmlns="http://www.w3.org/2000/svg" fill="#FFF" font-family="OCRA" font-size="3" transform="matrix(1 0 0 1 98.2307 9.6274)">F1</text><text xmlns="http://www.w3.org/2000/svg" fill="#FFF" font-family="OCRA" font-size="3" transform="matrix(1 0 0 1 75.7092 9.6274)">GND</text><text xmlns="http://www.w3.org/2000/svg" fill="#FFF" font-family="OCRA" font-size="3" transform="matrix(1 0 0 1 81.9866 9.6274)">AREF</text><text xmlns="http://www.w3.org/2000/svg" fill="#FFF" font-family="OCRA" font-size="3" transform="matrix(1 0 0 1 105.4319 9.6274)">F2</text><text xmlns="http://www.w3.org/2000/svg" fill="#FFF" font-family="OCRA" font-size="3" transform="matrix(1 0 0 1 112.6311 9.6274)">F3</text><text xmlns="http://www.w3.org/2000/svg" fill="#FFF" font-family="OCRA" font-size="3" transform="matrix(1 0 0 1 119.8303 9.6274)">F4</text><text xmlns="http://www.w3.org/2000/svg" fill="#FFF" font-family="OCRA" font-size="3" transform="matrix(1 0 0 1 97.3088 14.4829)">PA0</text><text xmlns="http://www.w3.org/2000/svg" fill="#FFF" font-family="OCRA" font-size="3" transform="matrix(1 0 0 1 104.5081 14.4829)">PA1</text><text xmlns="http://www.w3.org/2000/svg" fill="#FFF" font-family="OCRA" font-size="3" transform="matrix(1 0 0 1 111.7092 14.4829)">PA2</text><text xmlns="http://www.w3.org/2000/svg" fill="#FFF" font-family="OCRA" font-size="3" transform="matrix(1 0 0 1 118.9084 14.4829)">PA3</text><text xmlns="http://www.w3.org/2000/svg" fill="#FFF" font-family="OCRA" font-size="3" transform="matrix(1 0 0 1 97.3088 30.6694)">PA4</text><text xmlns="http://www.w3.org/2000/svg" fill="#FFF" font-family="OCRA" font-size="3" transform="matrix(1 0 0 1 104.5081 30.6694)">PA5</text><text xmlns="http://www.w3.org/2000/svg" fill="#FFF" font-family="OCRA" font-size="3" transform="matrix(1 0 0 1 111.7092 30.6694)">PA6</text><text xmlns="http://www.w3.org/2000/svg" fill="#FFF" font-family="OCRA" font-size="3" transform="matrix(1 0 0 1 123.2756 29.7026)">PA7</text><text xmlns="http://www.w3.org/2000/svg" fill="#FFF" font-family="OCRA" font-size="3" transform="matrix(1 0 0 1 127.0315 9.6274)">F5</text><text xmlns="http://www.w3.org/2000/svg" fill="#FFF" font-family="OCRA" font-size="3" transform="matrix(1 0 0 1 134.2307 9.6274)">F6</text><text xmlns="http://www.w3.org/2000/svg" fill="#FFF" font-family="OCRA" font-size="3" transform="matrix(1 0 0 1 141.4319 9.6274)">F7</text><text xmlns="http://www.w3.org/2000/svg" fill="#FFF" font-family="OCRA" font-size="3" transform="matrix(1 0 0 1 3.7092 43.2231)">GND</text><text xmlns="http://www.w3.org/2000/svg" fill="#FFF" font-family="OCRA" font-size="3" transform="matrix(1 0 0 1 11.8313 43.2231)">B7</text><text xmlns="http://www.w3.org/2000/svg" fill="#FFF" font-family="OCRA" font-size="3" transform="matrix(1 0 0 1 19.0315 43.2231)">D0</text><text xmlns="http://www.w3.org/2000/svg" fill="#FFF" font-family="OCRA" font-size="3" transform="matrix(1 0 0 1 26.2317 43.2231)">D1</text><text xmlns="http://www.w3.org/2000/svg" fill="#FFF" font-family="OCRA" font-size="3" transform="matrix(1 0 0 1 33.4314 43.2231)">D2</text><text xmlns="http://www.w3.org/2000/svg" fill="#FFF" font-family="OCRA" font-size="3" transform="matrix(1 0 0 1 40.6316 43.2231)">D3</text><text xmlns="http://www.w3.org/2000/svg" fill="#FFF" font-family="OCRA" font-size="3" transform="matrix(1 0 0 1 47.8313 43.2231)">D4</text><text xmlns="http://www.w3.org/2000/svg" fill="#FFF" font-family="OCRA" font-size="3" transform="matrix(1 0 0 1 39.9241 18.8481)">TEENSY 2.0++</text><text xmlns="http://www.w3.org/2000/svg" fill="#FFF" font-family="OCRA" font-size="3" transform="matrix(1 0 0 1 55.0315 43.2231)">D5</text><text xmlns="http://www.w3.org/2000/svg" fill="#FFF" font-family="OCRA" font-size="3" transform="matrix(1 0 0 1 62.2317 43.2231)">D6</text><text xmlns="http://www.w3.org/2000/svg" fill="#FFF" font-family="OCRA" font-size="3" transform="matrix(1 0 0 1 69.4319 43.2231)">D7</text><text xmlns="http://www.w3.org/2000/svg" fill="#FFF" font-family="OCRA" font-size="3" transform="matrix(1 0 0 1 76.6311 43.2231)">E0</text><text xmlns="http://www.w3.org/2000/svg" fill="#FFF" font-family="OCRA" font-size="3" transform="matrix(1 0 0 1 83.8323 43.2231)">E1</text><path xmlns="http://www.w3.org/2000/svg" fill="#147390" d="M130.572,46.795c-0.002,0.5-0.205,0.953-0.531,1.279C130.366,47.749,130.572,47.295,130.572,46.795z"/><path xmlns="http://www.w3.org/2000/svg" fill="#9A916C" d="M107.187,44.243c-1.41,0-2.554,1.146-2.554,2.555c0,1.406,1.144,2.553,2.554,2.553c1.405,0,2.551-1.146,2.551-2.553C109.738,45.385,108.592,44.243,107.187,44.243z M107.187,48.604c-1,0-1.812-0.812-1.812-1.811c0-1,0.812-1.812,1.812-1.812c0.997,0,1.812,0.812,1.812,1.812C108.996,47.793,108.184,48.604,107.187,48.604z"/><path xmlns="http://www.w3.org/2000/svg" fill="#9A916C" d="M114.385,44.243c-1.404,0-2.554,1.146-2.554,2.555c0,1.406,1.146,2.553,2.554,2.553c1.409,0,2.555-1.146,2.555-2.553C116.939,45.387,115.797,44.243,114.385,44.243z M114.385,48.604c-1,0-1.812-0.812-1.812-1.811c0-1,0.812-1.812,1.812-1.812s1.812,0.812,1.812,1.812C116.195,47.793,115.385,48.604,114.385,48.604z"/><path xmlns="http://www.w3.org/2000/svg" fill="#9A916C" d="M121.584,44.243c-1.408,0-2.557,1.146-2.557,2.555c0,1.406,1.146,2.553,2.557,2.553c1.406,0,2.551-1.146,2.551-2.553C124.135,45.387,122.991,44.243,121.584,44.243z M121.584,48.604c-1,0-1.812-0.812-1.812-1.811c0-1,0.812-1.812,1.812-1.812c0.998,0,1.811,0.812,1.811,1.812S122.583,48.604,121.584,48.604z"/><path xmlns="http://www.w3.org/2000/svg" fill="#9A916C" d="M128.784,44.245c-1.406,0-2.553,1.146-2.553,2.555c0,1.406,1.146,2.554,2.553,2.554c1.408,0,2.553-1.146,2.553-2.554C131.335,45.39,130.193,44.245,128.784,44.245z M128.784,48.607c-1,0-1.811-0.812-1.811-1.812c0-0.998,0.811-1.812,1.811-1.812c0.998,0,1.812,0.812,1.812,1.812S129.782,48.607,128.784,48.607z"/><text xmlns="http://www.w3.org/2000/svg" fill="#FFF" font-family="OCRA" font-size="3" transform="matrix(1 0 0 1 91.0315 43.2231)">C0</text><text xmlns="http://www.w3.org/2000/svg" fill="#FFF" font-family="OCRA" font-size="3" transform="matrix(1 0 0 1 98.2307 43.2231)">C1</text><text xmlns="http://www.w3.org/2000/svg" fill="#FFF" font-family="OCRA" font-size="3" transform="matrix(1 0 0 1 105.4319 43.2231)">C2</text><text xmlns="http://www.w3.org/2000/svg" fill="#FFF" font-family="OCRA" font-size="3" transform="matrix(1 0 0 1 112.6311 43.2231)">C3</text><text xmlns="http://www.w3.org/2000/svg" fill="#FFF" font-family="OCRA" font-size="3" transform="matrix(1 0 0 1 119.8303 43.2231)">C4</text><text xmlns="http://www.w3.org/2000/svg" fill="#FFF" font-family="OCRA" font-size="3" transform="matrix(1 0 0 1 118.9084 38.2817)">ALE</text><text xmlns="http://www.w3.org/2000/svg" fill="#FFF" font-family="OCRA" font-size="3" transform="matrix(1 0 0 1 127.0315 43.2231)">C5</text><text xmlns="http://www.w3.org/2000/svg" fill="#FFF" font-family="OCRA" font-size="3" transform="matrix(1 0 0 1 134.2307 43.2231)">C6</text><text xmlns="http://www.w3.org/2000/svg" fill="#FFF" font-family="OCRA" font-size="3" transform="matrix(1 0 0 1 141.4319 43.2231)">C7</text><path xmlns="http://www.w3.org/2000/svg" fill="#147390" d="M144.971,46.795c-0.002,0.5-0.203,0.953-0.531,1.279C144.766,47.749,144.971,47.295,144.971,46.795z"/><path xmlns="http://www.w3.org/2000/svg" fill="#9A916C" d="M135.989,44.243c-1.408,0-2.558,1.146-2.558,2.555c0,1.406,1.146,2.553,2.558,2.553c1.405,0,2.551-1.146,2.551-2.553C138.539,45.387,137.394,44.243,135.989,44.243z M135.989,48.604c-1,0-1.812-0.812-1.812-1.811c0-1,0.812-1.812,1.812-1.812c0.997,0,1.811,0.812,1.811,1.812S136.986,48.604,135.989,48.604z"/><path xmlns="http://www.w3.org/2000/svg" fill="#9A916C" d="M143.187,44.243c-1.406,0-2.554,1.146-2.554,2.555c0,1.406,1.146,2.554,2.554,2.554c1.408,0,2.553-1.146,2.553-2.554C145.739,45.388,144.595,44.243,143.187,44.243z M143.187,48.605c-1,0-1.812-0.812-1.812-1.812c0-0.998,0.812-1.812,1.812-1.812c0.998,0,1.811,0.812,1.811,1.812S144.185,48.605,143.187,48.605z"/><g xmlns="http://www.w3.org/2000/svg"><rect xmlns="http://www.w3.org/2000/svg" width="7.07" height="10.313" x="129.442" y="20.036" fill="#8C8B8B"/><ellipse xmlns="http://www.w3.org/2000/svg" cx="132.977" cy="25.193" fill="#404040" rx="2.15" ry="3.041"/></g><g xmlns="http://www.w3.org/2000/svg"><rect xmlns="http://www.w3.org/2000/svg" width="4.021" height="1.72" x="34.398" y="12.582" fill="#238D35"/><rect xmlns="http://www.w3.org/2000/svg" width="4.021" height="1.72" x="34.398" y="17.127" fill="#238D35"/><rect xmlns="http://www.w3.org/2000/svg" width="2.896" height="1.369" x="34.398" y="21.813" fill="#238D35"/><rect xmlns="http://www.w3.org/2000/svg" width="1.37" height="2.895" x="60.009" y="11.848" fill="#238D35"/><rect xmlns="http://www.w3.org/2000/svg" width="2.895" height="1.37" x="89.201" y="16.444" fill="#238D35" transform="matrix(-0.707 0.7072 -0.7072 -0.707 166.8529 -34.8661)"/><rect xmlns="http://www.w3.org/2000/svg" width="2.894" height="1.371" x="57.74" y="32.973" fill="#238D35" transform="matrix(-0.7069 0.7073 -0.7073 -0.7069 124.8338 15.5911)"/><rect xmlns="http://www.w3.org/2000/svg" width="2.896" height="1.369" x="34.398" y="25.309" fill="#238D35"/><rect xmlns="http://www.w3.org/2000/svg" width="2.896" height="1.369" x="91.329" y="33.353" fill="#238D35"/><rect xmlns="http://www.w3.org/2000/svg" width="2.896" height="1.369" x="113.149" y="34.249" fill="#238D35"/><rect xmlns="http://www.w3.org/2000/svg" width="4.384" height="1.959" x="103.649" y="33.659" fill="#238D35"/><rect xmlns="http://www.w3.org/2000/svg" width="22.811" height="22.811" x="63.496" y="13.905" fill="#238D35" transform="matrix(0.7071 -0.7071 0.7071 0.7071 4.0418 60.3777)"/><rect xmlns="http://www.w3.org/2000/svg" width="1.083" height="2.917" x="33.764" y="33.474" fill="#238D35"/><rect xmlns="http://www.w3.org/2000/svg" width="1.082" height="2.917" x="47.931" y="33.474" fill="#238D35"/><rect xmlns="http://www.w3.org/2000/svg" width="8.013" height="6.625" x="37.294" y="30.724" fill="#238D35"/></g><g xmlns="http://www.w3.org/2000/svg"><g xmlns="http://www.w3.org/2000/svg"><g xmlns="http://www.w3.org/2000/svg"><path xmlns="http://www.w3.org/2000/svg" fill="#A8A8A8" d="M6.626,2.432c-0.64,0-1.162,0.521-1.162,1.163h2.324C7.787,2.953,7.268,2.432,6.626,2.432z"/><path xmlns="http://www.w3.org/2000/svg" fill="#7A7A7A" d="M5.464,3.595c0,0.64,0.521,1.162,1.162,1.162c0.643,0,1.163-0.521,1.163-1.162H5.464z"/></g><circle xmlns="http://www.w3.org/2000/svg" cx="6.625" cy="3.592" r=".496" fill="#8D8C8C"/></g><g xmlns="http://www.w3.org/2000/svg"><g xmlns="http://www.w3.org/2000/svg"><path xmlns="http://www.w3.org/2000/svg" fill="#A8A8A8" d="M13.812,2.432c-0.64,0-1.162,0.521-1.162,1.163h2.324C14.973,2.953,14.454,2.432,13.812,2.432z"/><path xmlns="http://www.w3.org/2000/svg" fill="#7A7A7A" d="M12.65,3.595c0,0.64,0.521,1.162,1.162,1.162c0.643,0,1.163-0.521,1.163-1.162H12.65z"/></g><circle xmlns="http://www.w3.org/2000/svg" cx="13.811" cy="3.592" r=".496" fill="#8D8C8C"/></g><g xmlns="http://www.w3.org/2000/svg"><g xmlns="http://www.w3.org/2000/svg"><path xmlns="http://www.w3.org/2000/svg" fill="#A8A8A8" d="M20.998,2.432c-0.64,0-1.162,0.521-1.162,1.163h2.324C22.159,2.953,21.64,2.432,20.998,2.432z"/><path xmlns="http://www.w3.org/2000/svg" fill="#7A7A7A" d="M19.836,3.595c0,0.64,0.521,1.162,1.162,1.162c0.643,0,1.163-0.521,1.163-1.162H19.836z"/></g><circle xmlns="http://www.w3.org/2000/svg" cx="20.997" cy="3.592" r=".496" fill="#8D8C8C"/></g><g xmlns="http://www.w3.org/2000/svg"><g xmlns="http://www.w3.org/2000/svg"><path xmlns="http://www.w3.org/2000/svg" fill="#A8A8A8" d="M28.184,2.432c-0.64,0-1.162,0.521-1.162,1.163h2.324C29.345,2.953,28.826,2.432,28.184,2.432z"/><path xmlns="http://www.w3.org/2000/svg" fill="#7A7A7A" d="M27.022,3.595c0,0.64,0.521,1.162,1.162,1.162c0.643,0,1.163-0.521,1.163-1.162H27.022z"/></g><circle xmlns="http://www.w3.org/2000/svg" cx="28.183" cy="3.592" r=".496" fill="#8D8C8C"/></g><g xmlns="http://www.w3.org/2000/svg"><g xmlns="http://www.w3.org/2000/svg"><path xmlns="http://www.w3.org/2000/svg" fill="#A8A8A8" d="M35.37,2.432c-0.64,0-1.162,0.521-1.162,1.163h2.324C36.531,2.953,36.012,2.432,35.37,2.432z"/><path xmlns="http://www.w3.org/2000/svg" fill="#7A7A7A" d="M34.208,3.595c0,0.64,0.521,1.162,1.162,1.162c0.643,0,1.163-0.521,1.163-1.162H34.208z"/></g><circle xmlns="http://www.w3.org/2000/svg" cx="35.369" cy="3.592" r=".496" fill="#8D8C8C"/></g><g xmlns="http://www.w3.org/2000/svg"><g xmlns="http://www.w3.org/2000/svg"><path xmlns="http://www.w3.org/2000/svg" fill="#A8A8A8" d="M42.556,2.432c-0.64,0-1.162,0.521-1.162,1.163h2.324C43.718,2.953,43.198,2.432,42.556,2.432z"/><path xmlns="http://www.w3.org/2000/svg" fill="#7A7A7A" d="M41.394,3.595c0,0.64,0.521,1.162,1.162,1.162c0.643,0,1.163-0.521,1.163-1.162H41.394z"/></g><circle xmlns="http://www.w3.org/2000/svg" cx="42.555" cy="3.592" r=".496" fill="#8D8C8C"/></g><g xmlns="http://www.w3.org/2000/svg"><g xmlns="http://www.w3.org/2000/svg"><path xmlns="http://www.w3.org/2000/svg" fill="#A8A8A8" d="M49.742,2.432c-0.64,0-1.162,0.521-1.162,1.163h2.324C50.904,2.953,50.384,2.432,49.742,2.432z"/><path xmlns="http://www.w3.org/2000/svg" fill="#7A7A7A" d="M48.58,3.595c0,0.64,0.521,1.162,1.162,1.162c0.643,0,1.163-0.521,1.163-1.162H48.58z"/></g><circle xmlns="http://www.w3.org/2000/svg" cx="49.741" cy="3.592" r=".496" fill="#8D8C8C"/></g><g xmlns="http://www.w3.org/2000/svg"><g xmlns="http://www.w3.org/2000/svg"><path xmlns="http://www.w3.org/2000/svg" fill="#A8A8A8" d="M56.928,2.432c-0.64,0-1.162,0.521-1.162,1.163h2.324C58.09,2.953,57.57,2.432,56.928,2.432z"/><path xmlns="http://www.w3.org/2000/svg" fill="#7A7A7A" d="M55.766,3.595c0,0.64,0.521,1.162,1.162,1.162c0.643,0,1.163-0.521,1.163-1.162H55.766z"/></g><circle xmlns="http://www.w3.org/2000/svg" cx="56.927" cy="3.592" r=".496" fill="#8D8C8C"/></g><g xmlns="http://www.w3.org/2000/svg"><g xmlns="http://www.w3.org/2000/svg"><path xmlns="http://www.w3.org/2000/svg" fill="#A8A8A8" d="M64.115,2.432c-0.64,0-1.162,0.521-1.162,1.163h2.324C65.276,2.953,64.756,2.432,64.115,2.432z"/><path xmlns="http://www.w3.org/2000/svg" fill="#7A7A7A" d="M62.952,3.595c0,0.64,0.521,1.162,1.162,1.162c0.643,0,1.163-0.521,1.163-1.162H62.952z"/></g><circle xmlns="http://www.w3.org/2000/svg" cx="64.114" cy="3.592" r=".496" fill="#8D8C8C"/></g><g xmlns="http://www.w3.org/2000/svg"><g xmlns="http://www.w3.org/2000/svg"><path xmlns="http://www.w3.org/2000/svg" fill="#A8A8A8" d="M71.301,2.432c-0.64,0-1.162,0.521-1.162,1.163h2.324C72.462,2.953,71.942,2.432,71.301,2.432z"/><path xmlns="http://www.w3.org/2000/svg" fill="#7A7A7A" d="M70.138,3.595c0,0.64,0.521,1.162,1.162,1.162c0.643,0,1.163-0.521,1.163-1.162H70.138z"/></g><circle xmlns="http://www.w3.org/2000/svg" cx="71.3" cy="3.592" r=".496" fill="#8D8C8C"/></g><g xmlns="http://www.w3.org/2000/svg"><g xmlns="http://www.w3.org/2000/svg"><path xmlns="http://www.w3.org/2000/svg" fill="#A8A8A8" d="M78.385,2.432c-0.64,0-1.162,0.521-1.162,1.163h2.324C79.546,2.953,79.027,2.432,78.385,2.432z"/><path xmlns="http://www.w3.org/2000/svg" fill="#7A7A7A" d="M77.223,3.595c0,0.64,0.521,1.162,1.162,1.162c0.643,0,1.163-0.521,1.163-1.162H77.223z"/></g><circle xmlns="http://www.w3.org/2000/svg" cx="78.384" cy="3.592" r=".496" fill="#8D8C8C"/></g><g xmlns="http://www.w3.org/2000/svg"><g xmlns="http://www.w3.org/2000/svg"><path xmlns="http://www.w3.org/2000/svg" fill="#A8A8A8" d="M85.56,2.432c-0.64,0-1.162,0.521-1.162,1.163h2.324C86.721,2.953,86.201,2.432,85.56,2.432z"/><path xmlns="http://www.w3.org/2000/svg" fill="#7A7A7A" d="M84.398,3.595c0,0.64,0.521,1.162,1.162,1.162c0.643,0,1.163-0.521,1.163-1.162H84.398z"/></g><circle xmlns="http://www.w3.org/2000/svg" cx="85.559" cy="3.592" r=".496" fill="#8D8C8C"/></g><g xmlns="http://www.w3.org/2000/svg"><g xmlns="http://www.w3.org/2000/svg"><path xmlns="http://www.w3.org/2000/svg" fill="#A8A8A8" d="M92.859,2.432c-0.64,0-1.162,0.521-1.162,1.163h2.324C94.02,2.953,93.5,2.432,92.859,2.432z"/><path xmlns="http://www.w3.org/2000/svg" fill="#7A7A7A" d="M91.697,3.595c0,0.64,0.521,1.162,1.162,1.162c0.643,0,1.163-0.521,1.163-1.162H91.697z"/></g><circle xmlns="http://www.w3.org/2000/svg" cx="92.858" cy="3.592" r=".496" fill="#8D8C8C"/></g><g xmlns="http://www.w3.org/2000/svg"><g xmlns="http://www.w3.org/2000/svg"><path xmlns="http://www.w3.org/2000/svg" fill="#A8A8A8" d="M99.96,2.432c-0.64,0-1.162,0.521-1.162,1.163h2.324C101.121,2.953,100.602,2.432,99.96,2.432z"/><path xmlns="http://www.w3.org/2000/svg" fill="#7A7A7A" d="M98.798,3.595c0,0.64,0.521,1.162,1.162,1.162c0.643,0,1.163-0.521,1.163-1.162H98.798z"/></g><circle xmlns="http://www.w3.org/2000/svg" cx="99.959" cy="3.592" r=".496" fill="#8D8C8C"/></g><g xmlns="http://www.w3.org/2000/svg"><g xmlns="http://www.w3.org/2000/svg"><path xmlns="http://www.w3.org/2000/svg" fill="#A8A8A8" d="M107.161,2.432c-0.64,0-1.162,0.521-1.162,1.163h2.324C108.323,2.953,107.803,2.432,107.161,2.432z"/><path xmlns="http://www.w3.org/2000/svg" fill="#7A7A7A" d="M105.999,3.595c0,0.64,0.521,1.162,1.162,1.162c0.643,0,1.163-0.521,1.163-1.162H105.999z"/></g><circle xmlns="http://www.w3.org/2000/svg" cx="107.16" cy="3.592" r=".496" fill="#8D8C8C"/></g><g xmlns="http://www.w3.org/2000/svg"><g xmlns="http://www.w3.org/2000/svg"><path xmlns="http://www.w3.org/2000/svg" fill="#A8A8A8" d="M114.416,2.432c-0.64,0-1.162,0.521-1.162,1.163h2.324C115.577,2.953,115.058,2.432,114.416,2.432z"/><path xmlns="http://www.w3.org/2000/svg" fill="#7A7A7A" d="M113.254,3.595c0,0.64,0.521,1.162,1.162,1.162c0.643,0,1.163-0.521,1.163-1.162H113.254z"/></g><circle xmlns="http://www.w3.org/2000/svg" cx="114.415" cy="3.592" r=".496" fill="#8D8C8C"/></g><g xmlns="http://www.w3.org/2000/svg"><g xmlns="http://www.w3.org/2000/svg"><path xmlns="http://www.w3.org/2000/svg" fill="#A8A8A8" d="M121.603,2.432c-0.64,0-1.162,0.521-1.162,1.163h2.324C122.764,2.953,122.244,2.432,121.603,2.432z"/><path xmlns="http://www.w3.org/2000/svg" fill="#7A7A7A" d="M120.441,3.595c0,0.64,0.521,1.162,1.162,1.162c0.643,0,1.163-0.521,1.163-1.162H120.441z"/></g><circle xmlns="http://www.w3.org/2000/svg" cx="121.602" cy="3.592" r=".496" fill="#8D8C8C"/></g><g xmlns="http://www.w3.org/2000/svg"><g xmlns="http://www.w3.org/2000/svg"><path xmlns="http://www.w3.org/2000/svg" fill="#A8A8A8" d="M128.76,2.432c-0.64,0-1.162,0.521-1.162,1.163h2.324C129.921,2.953,129.402,2.432,128.76,2.432z"/><path xmlns="http://www.w3.org/2000/svg" fill="#7A7A7A" d="M127.598,3.595c0,0.64,0.521,1.162,1.162,1.162c0.643,0,1.163-0.521,1.163-1.162H127.598z"/></g><circle xmlns="http://www.w3.org/2000/svg" cx="128.759" cy="3.592" r=".496" fill="#8D8C8C"/></g><g xmlns="http://www.w3.org/2000/svg"><g xmlns="http://www.w3.org/2000/svg"><path xmlns="http://www.w3.org/2000/svg" fill="#A8A8A8" d="M135.96,2.432c-0.64,0-1.162,0.521-1.162,1.163h2.324C137.121,2.953,136.602,2.432,135.96,2.432z"/><path xmlns="http://www.w3.org/2000/svg" fill="#7A7A7A" d="M134.798,3.595c0,0.64,0.521,1.162,1.162,1.162c0.643,0,1.163-0.521,1.163-1.162H134.798z"/></g><circle xmlns="http://www.w3.org/2000/svg" cx="135.959" cy="3.592" r=".496" fill="#8D8C8C"/></g><g xmlns="http://www.w3.org/2000/svg"><g xmlns="http://www.w3.org/2000/svg"><path xmlns="http://www.w3.org/2000/svg" fill="#A8A8A8" d="M143.16,2.429c-0.64,0-1.162,0.521-1.162,1.163h2.324C144.322,2.95,143.802,2.429,143.16,2.429z"/><path xmlns="http://www.w3.org/2000/svg" fill="#7A7A7A" d="M141.998,3.592c0,0.64,0.521,1.162,1.162,1.162c0.643,0,1.163-0.521,1.163-1.162H141.998z"/></g><circle xmlns="http://www.w3.org/2000/svg" cx="143.159" cy="3.589" r=".496" fill="#8D8C8C"/></g></g><g xmlns="http://www.w3.org/2000/svg"><g xmlns="http://www.w3.org/2000/svg"><g xmlns="http://www.w3.org/2000/svg"><path xmlns="http://www.w3.org/2000/svg" fill="#A8A8A8" d="M6.626,45.607c-0.64,0-1.162,0.521-1.162,1.163h2.324C7.787,46.127,7.268,45.607,6.626,45.607z"/><path xmlns="http://www.w3.org/2000/svg" fill="#7A7A7A" d="M5.464,46.77c0,0.641,0.521,1.162,1.162,1.162c0.643,0,1.163-0.521,1.163-1.162H5.464z"/></g><circle xmlns="http://www.w3.org/2000/svg" cx="6.625" cy="46.767" r=".496" fill="#8D8C8C"/></g><g xmlns="http://www.w3.org/2000/svg"><g xmlns="http://www.w3.org/2000/svg"><path xmlns="http://www.w3.org/2000/svg" fill="#A8A8A8" d="M13.812,45.607c-0.64,0-1.162,0.521-1.162,1.163h2.324C14.973,46.127,14.454,45.607,13.812,45.607z"/><path xmlns="http://www.w3.org/2000/svg" fill="#7A7A7A" d="M12.65,46.77c0,0.641,0.521,1.162,1.162,1.162c0.643,0,1.163-0.521,1.163-1.162H12.65z"/></g><circle xmlns="http://www.w3.org/2000/svg" cx="13.811" cy="46.767" r=".496" fill="#8D8C8C"/></g><g xmlns="http://www.w3.org/2000/svg"><g xmlns="http://www.w3.org/2000/svg"><path xmlns="http://www.w3.org/2000/svg" fill="#A8A8A8" d="M20.998,45.607c-0.64,0-1.162,0.521-1.162,1.163h2.324C22.159,46.127,21.639,45.607,20.998,45.607z"/><path xmlns="http://www.w3.org/2000/svg" fill="#7A7A7A" d="M19.836,46.77c0,0.641,0.521,1.162,1.162,1.162c0.643,0,1.163-0.521,1.163-1.162H19.836z"/></g><circle xmlns="http://www.w3.org/2000/svg" cx="20.997" cy="46.767" r=".496" fill="#8D8C8C"/></g><g xmlns="http://www.w3.org/2000/svg"><g xmlns="http://www.w3.org/2000/svg"><path xmlns="http://www.w3.org/2000/svg" fill="#A8A8A8" d="M28.184,45.607c-0.64,0-1.162,0.521-1.162,1.163h2.324C29.345,46.127,28.825,45.607,28.184,45.607z"/><path xmlns="http://www.w3.org/2000/svg" fill="#7A7A7A" d="M27.022,46.77c0,0.641,0.521,1.162,1.162,1.162c0.643,0,1.163-0.521,1.163-1.162H27.022z"/></g><circle xmlns="http://www.w3.org/2000/svg" cx="28.183" cy="46.767" r=".496" fill="#8D8C8C"/></g><g xmlns="http://www.w3.org/2000/svg"><g xmlns="http://www.w3.org/2000/svg"><path xmlns="http://www.w3.org/2000/svg" fill="#A8A8A8" d="M35.369,45.607c-0.64,0-1.162,0.521-1.162,1.163h2.324C36.531,46.127,36.011,45.607,35.369,45.607z"/><path xmlns="http://www.w3.org/2000/svg" fill="#7A7A7A" d="M34.207,46.77c0,0.641,0.521,1.162,1.162,1.162c0.643,0,1.163-0.521,1.163-1.162H34.207z"/></g><circle xmlns="http://www.w3.org/2000/svg" cx="35.368" cy="46.767" r=".496" fill="#8D8C8C"/></g><g xmlns="http://www.w3.org/2000/svg"><g xmlns="http://www.w3.org/2000/svg"><path xmlns="http://www.w3.org/2000/svg" fill="#A8A8A8" d="M42.555,45.607c-0.64,0-1.162,0.521-1.162,1.163h2.324C43.717,46.127,43.197,45.607,42.555,45.607z"/><path xmlns="http://www.w3.org/2000/svg" fill="#7A7A7A" d="M41.393,46.77c0,0.641,0.521,1.162,1.162,1.162c0.643,0,1.163-0.521,1.163-1.162H41.393z"/></g><circle xmlns="http://www.w3.org/2000/svg" cx="42.554" cy="46.767" r=".496" fill="#8D8C8C"/></g><g xmlns="http://www.w3.org/2000/svg"><g xmlns="http://www.w3.org/2000/svg"><path xmlns="http://www.w3.org/2000/svg" fill="#A8A8A8" d="M49.741,45.607c-0.64,0-1.162,0.521-1.162,1.163h2.324C50.902,46.127,50.383,45.607,49.741,45.607z"/><path xmlns="http://www.w3.org/2000/svg" fill="#7A7A7A" d="M48.579,46.77c0,0.641,0.521,1.162,1.162,1.162c0.643,0,1.163-0.521,1.163-1.162H48.579z"/></g><circle xmlns="http://www.w3.org/2000/svg" cx="49.74" cy="46.767" r=".496" fill="#8D8C8C"/></g><g xmlns="http://www.w3.org/2000/svg"><g xmlns="http://www.w3.org/2000/svg"><path xmlns="http://www.w3.org/2000/svg" fill="#A8A8A8" d="M56.927,45.607c-0.64,0-1.162,0.521-1.162,1.163h2.324C58.088,46.127,57.569,45.607,56.927,45.607z"/><path xmlns="http://www.w3.org/2000/svg" fill="#7A7A7A" d="M55.765,46.77c0,0.641,0.521,1.162,1.162,1.162c0.643,0,1.163-0.521,1.163-1.162H55.765z"/></g><circle xmlns="http://www.w3.org/2000/svg" cx="56.926" cy="46.767" r=".496" fill="#8D8C8C"/></g><g xmlns="http://www.w3.org/2000/svg"><g xmlns="http://www.w3.org/2000/svg"><path xmlns="http://www.w3.org/2000/svg" fill="#A8A8A8" d="M64.113,45.607c-0.64,0-1.162,0.521-1.162,1.163h2.324C65.274,46.127,64.754,45.607,64.113,45.607z"/><path xmlns="http://www.w3.org/2000/svg" fill="#7A7A7A" d="M62.95,46.77c0,0.641,0.521,1.162,1.162,1.162c0.643,0,1.163-0.521,1.163-1.162H62.95z"/></g><circle xmlns="http://www.w3.org/2000/svg" cx="64.112" cy="46.767" r=".496" fill="#8D8C8C"/></g><g xmlns="http://www.w3.org/2000/svg"><g xmlns="http://www.w3.org/2000/svg"><path xmlns="http://www.w3.org/2000/svg" fill="#A8A8A8" d="M71.299,45.607c-0.64,0-1.162,0.521-1.162,1.163h2.324C72.46,46.127,71.94,45.607,71.299,45.607z"/><path xmlns="http://www.w3.org/2000/svg" fill="#7A7A7A" d="M70.136,46.77c0,0.641,0.521,1.162,1.162,1.162c0.643,0,1.163-0.521,1.163-1.162H70.136z"/></g><circle xmlns="http://www.w3.org/2000/svg" cx="71.298" cy="46.767" r=".496" fill="#8D8C8C"/></g><g xmlns="http://www.w3.org/2000/svg"><g xmlns="http://www.w3.org/2000/svg"><path xmlns="http://www.w3.org/2000/svg" fill="#A8A8A8" d="M78.485,45.607c-0.64,0-1.162,0.521-1.162,1.163h2.324C79.646,46.127,79.126,45.607,78.485,45.607z"/><path xmlns="http://www.w3.org/2000/svg" fill="#7A7A7A" d="M77.323,46.77c0,0.641,0.521,1.162,1.162,1.162c0.643,0,1.163-0.521,1.163-1.162H77.323z"/></g><circle xmlns="http://www.w3.org/2000/svg" cx="78.484" cy="46.767" r=".496" fill="#8D8C8C"/></g><g xmlns="http://www.w3.org/2000/svg"><g xmlns="http://www.w3.org/2000/svg"><path xmlns="http://www.w3.org/2000/svg" fill="#A8A8A8" d="M85.561,45.607c-0.64,0-1.162,0.521-1.162,1.163h2.324C86.722,46.127,86.202,45.607,85.561,45.607z"/><path xmlns="http://www.w3.org/2000/svg" fill="#7A7A7A" d="M84.399,46.77c0,0.641,0.521,1.162,1.162,1.162c0.643,0,1.163-0.521,1.163-1.162H84.399z"/></g><circle xmlns="http://www.w3.org/2000/svg" cx="85.56" cy="46.767" r=".496" fill="#8D8C8C"/></g><g xmlns="http://www.w3.org/2000/svg"><g xmlns="http://www.w3.org/2000/svg"><path xmlns="http://www.w3.org/2000/svg" fill="#A8A8A8" d="M92.777,45.607c-0.64,0-1.162,0.521-1.162,1.163h2.324C93.938,46.127,93.418,45.607,92.777,45.607z"/><path xmlns="http://www.w3.org/2000/svg" fill="#7A7A7A" d="M91.615,46.77c0,0.641,0.521,1.162,1.162,1.162c0.643,0,1.163-0.521,1.163-1.162H91.615z"/></g><circle xmlns="http://www.w3.org/2000/svg" cx="92.776" cy="46.767" r=".496" fill="#8D8C8C"/></g><g xmlns="http://www.w3.org/2000/svg"><g xmlns="http://www.w3.org/2000/svg"><path xmlns="http://www.w3.org/2000/svg" fill="#A8A8A8" d="M99.986,45.607c-0.64,0-1.162,0.521-1.162,1.163h2.324C101.147,46.127,100.627,45.607,99.986,45.607z"/><path xmlns="http://www.w3.org/2000/svg" fill="#7A7A7A" d="M98.823,46.77c0,0.641,0.521,1.162,1.162,1.162c0.643,0,1.163-0.521,1.163-1.162H98.823z"/></g><circle xmlns="http://www.w3.org/2000/svg" cx="99.985" cy="46.767" r=".496" fill="#8D8C8C"/></g><g xmlns="http://www.w3.org/2000/svg"><g xmlns="http://www.w3.org/2000/svg"><path xmlns="http://www.w3.org/2000/svg" fill="#A8A8A8" d="M107.228,45.607c-0.64,0-1.162,0.521-1.162,1.163h2.324C108.389,46.127,107.869,45.607,107.228,45.607z"/><path xmlns="http://www.w3.org/2000/svg" fill="#7A7A7A" d="M106.066,46.77c0,0.641,0.521,1.162,1.162,1.162c0.643,0,1.163-0.521,1.163-1.162H106.066z"/></g><circle xmlns="http://www.w3.org/2000/svg" cx="107.227" cy="46.767" r=".496" fill="#8D8C8C"/></g><g xmlns="http://www.w3.org/2000/svg"><g xmlns="http://www.w3.org/2000/svg"><path xmlns="http://www.w3.org/2000/svg" fill="#A8A8A8" d="M114.413,45.607c-0.64,0-1.162,0.521-1.162,1.163h2.324C115.574,46.127,115.055,45.607,114.413,45.607z"/><path xmlns="http://www.w3.org/2000/svg" fill="#7A7A7A" d="M113.251,46.77c0,0.641,0.521,1.162,1.162,1.162c0.643,0,1.163-0.521,1.163-1.162H113.251z"/></g><circle xmlns="http://www.w3.org/2000/svg" cx="114.412" cy="46.767" r=".496" fill="#8D8C8C"/></g><g xmlns="http://www.w3.org/2000/svg"><g xmlns="http://www.w3.org/2000/svg"><path xmlns="http://www.w3.org/2000/svg" fill="#A8A8A8" d="M121.599,45.607c-0.64,0-1.162,0.521-1.162,1.163h2.324C122.76,46.127,122.24,45.607,121.599,45.607z"/><path xmlns="http://www.w3.org/2000/svg" fill="#7A7A7A" d="M120.437,46.77c0,0.641,0.521,1.162,1.162,1.162c0.643,0,1.163-0.521,1.163-1.162H120.437z"/></g><circle xmlns="http://www.w3.org/2000/svg" cx="121.598" cy="46.767" r=".496" fill="#8D8C8C"/></g><g xmlns="http://www.w3.org/2000/svg"><g xmlns="http://www.w3.org/2000/svg"><path xmlns="http://www.w3.org/2000/svg" fill="#A8A8A8" d="M128.785,45.607c-0.64,0-1.162,0.521-1.162,1.163h2.324C129.947,46.127,129.427,45.607,128.785,45.607z"/><path xmlns="http://www.w3.org/2000/svg" fill="#7A7A7A" d="M127.623,46.77c0,0.641,0.521,1.162,1.162,1.162c0.643,0,1.163-0.521,1.163-1.162H127.623z"/></g><circle xmlns="http://www.w3.org/2000/svg" cx="128.784" cy="46.767" r=".496" fill="#8D8C8C"/></g><g xmlns="http://www.w3.org/2000/svg"><g xmlns="http://www.w3.org/2000/svg"><path xmlns="http://www.w3.org/2000/svg" fill="#A8A8A8" d="M135.971,45.607c-0.64,0-1.162,0.521-1.162,1.163h2.324C137.132,46.127,136.613,45.607,135.971,45.607z"/><path xmlns="http://www.w3.org/2000/svg" fill="#7A7A7A" d="M134.809,46.77c0,0.641,0.521,1.162,1.162,1.162c0.643,0,1.163-0.521,1.163-1.162H134.809z"/></g><circle xmlns="http://www.w3.org/2000/svg" cx="135.97" cy="46.767" r=".496" fill="#8D8C8C"/></g><g xmlns="http://www.w3.org/2000/svg"><g xmlns="http://www.w3.org/2000/svg"><path xmlns="http://www.w3.org/2000/svg" fill="#A8A8A8" d="M143.16,45.604c-0.64,0-1.162,0.521-1.162,1.164h2.324C144.322,46.125,143.802,45.604,143.16,45.604z"/><path xmlns="http://www.w3.org/2000/svg" fill="#7A7A7A" d="M141.998,46.768c0,0.64,0.521,1.161,1.162,1.161c0.643,0,1.163-0.521,1.163-1.161H141.998z"/></g><circle xmlns="http://www.w3.org/2000/svg" cx="143.159" cy="46.764" r=".496" fill="#8D8C8C"/></g></g></g><path xmlns="http://www.w3.org/2000/svg" id="connector53pin" fill="none" d="M121.561,34.206c-1,0-1.812-0.812-1.812-1.812c0-0.999,0.812-1.812,1.812-1.812c0.998,0,1.81,0.812,1.81,1.812S122.559,34.206,121.561,34.206z"/><path xmlns="http://www.w3.org/2000/svg" id="connector52pin" fill="none" d="M121.561,27.006c-1,0-1.812-0.812-1.812-1.812c0-0.999,0.812-1.812,1.812-1.812s1.812,0.812,1.812,1.812C123.37,26.195,122.561,27.006,121.561,27.006z"/><path xmlns="http://www.w3.org/2000/svg" id="connector51pin" fill="none" d="M114.363,27.006c-1,0-1.812-0.812-1.812-1.812c0-0.999,0.812-1.812,1.812-1.812c0.998,0,1.811,0.812,1.811,1.812C116.17,26.195,115.361,27.006,114.363,27.006z"/><path xmlns="http://www.w3.org/2000/svg" id="connector50pin" fill="none" d="M107.163,27.006c-1,0-1.812-0.812-1.812-1.812c0-0.999,0.812-1.812,1.812-1.812c0.998,0,1.809,0.812,1.809,1.812C108.971,26.195,108.161,27.006,107.163,27.006z"/><path xmlns="http://www.w3.org/2000/svg" id="connector49pin" fill="none" d="M99.961,27.004c-1,0-1.812-0.812-1.812-1.812s0.812-1.812,1.812-1.812c0.996,0,1.811,0.812,1.811,1.812C101.768,26.194,100.958,27.004,99.961,27.004z"/><path xmlns="http://www.w3.org/2000/svg" id="connector48pin" fill="none" d="M121.561,19.805c-1,0-1.812-0.812-1.812-1.812c0-0.999,0.812-1.812,1.812-1.812s1.812,0.812,1.812,1.812C123.37,18.995,122.561,19.805,121.561,19.805z"/><path xmlns="http://www.w3.org/2000/svg" id="connector47pin" fill="none" d="M114.363,19.805c-1,0-1.812-0.812-1.812-1.812c0-0.999,0.812-1.812,1.812-1.812c0.998,0,1.811,0.812,1.811,1.812C116.17,18.995,115.361,19.805,114.363,19.805z"/><path xmlns="http://www.w3.org/2000/svg" id="connector46pin" fill="none" d="M107.163,19.805c-1,0-1.812-0.812-1.812-1.812c0-0.999,0.812-1.812,1.812-1.812c0.998,0,1.809,0.812,1.809,1.812C108.971,18.995,108.161,19.805,107.163,19.805z"/><path xmlns="http://www.w3.org/2000/svg" id="connector45pin" fill="none" d="M99.961,19.804c-1,0-1.812-0.812-1.812-1.811s0.812-1.812,1.812-1.812c0.996,0,1.811,0.812,1.811,1.812C101.768,18.994,100.958,19.804,99.961,19.804z"/><circle xmlns="http://www.w3.org/2000/svg" id="connector44pin" cx="52.42" cy="26.994" r=".906" fill="none"/><circle xmlns="http://www.w3.org/2000/svg" id="connector43pin" cx="52.42" cy="23.394" r=".906" fill="none"/><circle xmlns="http://www.w3.org/2000/svg" id="connector42pin" cx="6.627" cy="3.594" r="1.81" fill="none"/><circle xmlns="http://www.w3.org/2000/svg" id="connector41pin" cx="13.803" cy="3.594" r="1.81" fill="none"/><circle xmlns="http://www.w3.org/2000/svg" id="connector40pin" cx="20.978" cy="3.594" r="1.81" fill="none"/><circle xmlns="http://www.w3.org/2000/svg" id="connector39pin" cx="28.155" cy="3.594" r="1.81" fill="none"/><circle xmlns="http://www.w3.org/2000/svg" id="connector38pin" cx="35.33" cy="3.594" r="1.81" fill="none"/><circle xmlns="http://www.w3.org/2000/svg" id="connector37pin" cx="42.506" cy="3.594" r="1.81" fill="none"/><circle xmlns="http://www.w3.org/2000/svg" id="connector36pin" cx="49.682" cy="3.594" r="1.81" fill="none"/><circle xmlns="http://www.w3.org/2000/svg" id="connector35pin" cx="56.857" cy="3.594" r="1.81" fill="none"/><circle xmlns="http://www.w3.org/2000/svg" id="connector34pin" cx="64.033" cy="3.594" r="1.81" fill="none"/><circle xmlns="http://www.w3.org/2000/svg" id="connector33pin" cx="71.208" cy="3.594" r="1.81" fill="none"/><circle xmlns="http://www.w3.org/2000/svg" id="connector32pin" cx="78.385" cy="3.594" r="1.81" fill="none"/><path xmlns="http://www.w3.org/2000/svg" id="connector31pin" fill="none" d="M85.561,5.405c-1,0-1.812-0.812-1.812-1.812c0-0.999,0.812-1.812,1.812-1.812c0.996,0,1.81,0.812,1.81,1.812C87.368,4.594,86.557,5.405,85.561,5.405z"/><circle xmlns="http://www.w3.org/2000/svg" id="connector30pin" cx="92.76" cy="3.593" r="1.812" fill="none"/><path xmlns="http://www.w3.org/2000/svg" id="connector29pin" fill="none" d="M99.961,5.405c-1,0-1.812-0.812-1.812-1.812c0-0.999,0.812-1.812,1.812-1.812c0.996,0,1.811,0.812,1.811,1.812C101.768,4.594,100.958,5.405,99.961,5.405z"/><circle xmlns="http://www.w3.org/2000/svg" id="connector28pin" cx="107.161" cy="3.593" r="1.812" fill="none"/><path xmlns="http://www.w3.org/2000/svg" id="connector27pin" fill="none" d="M114.363,5.405c-1,0-1.812-0.812-1.812-1.812c0-0.999,0.812-1.812,1.812-1.812c0.995,0,1.809,0.812,1.809,1.812C116.168,4.594,115.358,5.405,114.363,5.405z"/><path xmlns="http://www.w3.org/2000/svg" id="connector26pin" fill="none" d="M121.561,5.405c-1,0-1.812-0.812-1.812-1.812c0-0.999,0.812-1.812,1.812-1.812c0.998,0,1.81,0.812,1.81,1.812C123.37,4.594,122.559,5.405,121.561,5.405z"/><path xmlns="http://www.w3.org/2000/svg" id="connector25pin" fill="none" d="M128.762,5.405c-1,0-1.812-0.812-1.812-1.812c0-0.999,0.812-1.812,1.812-1.812c0.998,0,1.81,0.812,1.81,1.812C130.57,4.594,129.76,5.405,128.762,5.405z"/><circle xmlns="http://www.w3.org/2000/svg" id="connector24pin" cx="135.961" cy="3.593" r="1.812" fill="none"/><circle xmlns="http://www.w3.org/2000/svg" id="connector23pin" cx="143.161" cy="3.593" r="1.812" fill="none"/><path xmlns="http://www.w3.org/2000/svg" id="connector22pin" fill="none" d="M143.163,19.805c-1,0-1.812-0.812-1.812-1.812c0-0.999,0.812-1.812,1.812-1.812c0.998,0,1.811,0.812,1.811,1.812C144.971,18.995,144.161,19.805,143.163,19.805z"/><path xmlns="http://www.w3.org/2000/svg" id="connector21pin" fill="none" d="M143.163,27.006c-1,0-1.812-0.812-1.812-1.812c0-0.999,0.812-1.812,1.812-1.812c0.998,0,1.811,0.812,1.811,1.812C144.971,26.195,144.161,27.006,143.163,27.006z"/><path xmlns="http://www.w3.org/2000/svg" id="connector20pin" fill="none" d="M143.163,34.206c-1,0-1.812-0.812-1.812-1.812c0-0.999,0.812-1.812,1.812-1.812c0.998,0,1.811,0.812,1.811,1.812C144.971,33.395,144.161,34.206,143.163,34.206z"/><circle xmlns="http://www.w3.org/2000/svg" id="connector19pin" cx="143.186" cy="46.793" r="1.812" fill="none"/><path xmlns="http://www.w3.org/2000/svg" id="connector18pin" fill="none" d="M135.988,48.605c-1,0-1.812-0.812-1.812-1.812s0.812-1.812,1.812-1.812c0.998,0,1.809,0.812,1.809,1.812C137.795,47.795,136.986,48.605,135.988,48.605z"/><circle xmlns="http://www.w3.org/2000/svg" id="connector17pin" cx="128.786" cy="46.793" r="1.812" fill="none"/><path xmlns="http://www.w3.org/2000/svg" id="connector16pin" fill="none" d="M121.586,48.605c-1,0-1.812-0.812-1.812-1.812s0.812-1.812,1.812-1.812c0.996,0,1.811,0.812,1.811,1.812C123.395,47.795,122.583,48.605,121.586,48.605z"/><circle xmlns="http://www.w3.org/2000/svg" id="connector15pin" cx="114.385" cy="46.793" r="1.812" fill="none"/><path xmlns="http://www.w3.org/2000/svg" id="connector14pin" fill="none" d="M107.186,48.605c-1,0-1.812-0.812-1.812-1.812s0.812-1.812,1.812-1.812c0.996,0,1.81,0.812,1.81,1.812C108.995,47.795,108.182,48.605,107.186,48.605z"/><path xmlns="http://www.w3.org/2000/svg" id="connector13pin" fill="none" d="M99.986,48.605c-1,0-1.812-0.812-1.812-1.812s0.812-1.812,1.812-1.812c0.997,0,1.811,0.812,1.811,1.812C101.795,47.795,100.983,48.605,99.986,48.605z"/><path xmlns="http://www.w3.org/2000/svg" id="connector12pin" fill="none" d="M92.786,48.605c-1,0-1.812-0.812-1.812-1.812s0.812-1.812,1.812-1.812c0.996,0,1.811,0.812,1.811,1.812C94.596,47.795,93.782,48.605,92.786,48.605z"/><path xmlns="http://www.w3.org/2000/svg" id="connector11pin" fill="none" d="M86.84,48.075c-0.328,0.328-0.781,0.531-1.279,0.531c-1,0-1.812-0.812-1.812-1.812c0-0.998,0.812-1.812,1.812-1.812c0.998,0,1.812,0.812,1.812,1.812C87.37,47.295,87.167,47.749,86.84,48.075z"/><circle xmlns="http://www.w3.org/2000/svg" id="connector10pin" cx="78.385" cy="46.793" r="1.812" fill="none"/><path xmlns="http://www.w3.org/2000/svg" id="connector9pin" fill="none" d="M71.208,48.605c-1,0-1.812-0.812-1.812-1.812s0.812-1.812,1.812-1.812c0.997,0,1.81,0.812,1.81,1.812C73.016,47.795,72.205,48.605,71.208,48.605z"/><path xmlns="http://www.w3.org/2000/svg" id="connector8pin" fill="none" d="M64.033,48.605c-1,0-1.812-0.812-1.812-1.812s0.812-1.812,1.812-1.812c0.999,0,1.812,0.812,1.812,1.812C65.842,47.795,65.032,48.605,64.033,48.605z"/><circle xmlns="http://www.w3.org/2000/svg" id="connector7pin" cx="56.857" cy="46.793" r="1.812" fill="none"/><circle xmlns="http://www.w3.org/2000/svg" id="connector6pin" cx="49.682" cy="46.793" r="1.812" fill="none"/><circle xmlns="http://www.w3.org/2000/svg" id="connector5pin" cx="42.506" cy="46.793" r="1.812" fill="none"/><circle xmlns="http://www.w3.org/2000/svg" id="connector4pin" cx="35.33" cy="46.793" r="1.812" fill="none"/><circle xmlns="http://www.w3.org/2000/svg" id="connector3pin" cx="28.156" cy="46.793" r="1.812" fill="none"/><circle xmlns="http://www.w3.org/2000/svg" id="connector2pin" cx="20.978" cy="46.793" r="1.812" fill="none"/><circle xmlns="http://www.w3.org/2000/svg" id="connector1pin" cx="13.802" cy="46.793" r="1.812" fill="none"/><circle xmlns="http://www.w3.org/2000/svg" id="connector0pin" cx="6.626" cy="46.793" r="1.812" fill="none"/></svg>