<svg xmlns="http://www.w3.org/2000/svg" xmlns:xlink="http://www.w3.org/1999/xlink" id="Layer_1" width="16" height="16" x="0" y="0" enable-background="new 0 0 16 16" version="1.1" viewBox="0 0 16 16" xml:space="preserve"><rect width="9" height="9" x="3.5" y="3.5" fill="#FFF" stroke="#000" stroke-miterlimit="10"/><line x1="3.5" x2="3.5" y1="0" y2="2" fill="none" stroke="#000" stroke-miterlimit="10"/><line x1="6.5" x2="6.5" y1="0" y2="2" fill="none" stroke="#000" stroke-miterlimit="10"/><line x1="9.5" x2="9.5" y1="0" y2="2" fill="none" stroke="#000" stroke-miterlimit="10"/><line x1="12.5" x2="12.5" y1="0" y2="2" fill="none" stroke="#000" stroke-miterlimit="10"/><line x1="3.5" x2="3.5" y1="14" y2="16" fill="none" stroke="#000" stroke-miterlimit="10"/><line x1="6.5" x2="6.5" y1="14" y2="16" fill="none" stroke="#000" stroke-miterlimit="10"/><line x1="9.5" x2="9.5" y1="14" y2="16" fill="none" stroke="#000" stroke-miterlimit="10"/><line x1="12.5" x2="12.5" y1="14" y2="16" fill="none" stroke="#000" stroke-miterlimit="10"/><line x1="14" x2="16" y1="12.5" y2="12.5" fill="none" stroke="#000" stroke-miterlimit="10"/><line x1="14" x2="16" y1="9.5" y2="9.5" fill="none" stroke="#000" stroke-miterlimit="10"/><line x1="14" x2="16" y1="6.5" y2="6.5" fill="none" stroke="#000" stroke-miterlimit="10"/><line x1="14" x2="16" y1="3.5" y2="3.5" fill="none" stroke="#000" stroke-miterlimit="10"/><line x1="0" x2="2" y1="12.5" y2="12.5" fill="none" stroke="#000" stroke-miterlimit="10"/><line x1="0" x2="2" y1="9.5" y2="9.5" fill="none" stroke="#000" stroke-miterlimit="10"/><line x1="0" x2="2" y1="6.5" y2="6.5" fill="none" stroke="#000" stroke-miterlimit="10"/><line x1="0" x2="2" y1="3.5" y2="3.5" fill="none" stroke="#000" stroke-miterlimit="10"/></svg>